<svg width="587" height="568" viewBox="0 0 587 568" fill="none" xmlns="http://www.w3.org/2000/svg">
<mask id="mask0_335_1485" style="mask-type:luminance" maskUnits="userSpaceOnUse" x="0" y="0" width="587" height="568">
<path d="M295.378 42.4915C275.587 45.7397 263.689 28.9933 266.622 46.5981C266.622 46.5981 248.429 42.4915 239.628 50.707C230.827 58.9226 212.046 60.0962 210.872 47.7717C209.699 35.4472 216.741 11.3885 210.872 9.62919C205.004 7.8699 206.178 -9.14924 192.094 6.69388C178.01 22.5394 159.232 25.4723 151.016 19.0184C142.8 12.5645 125.784 17.987 139.865 28.4788C153.949 38.9705 165.686 40.1441 153.949 46.0124C142.212 51.8807 123.434 56.5753 122.26 66.5525C121.087 76.5297 98.2016 64.7908 97.028 54.228C95.8543 43.6651 54.7765 46.0124 56.5358 55.4016C58.2951 64.7908 75.9023 61.2699 70.034 66.5501C64.1658 71.8327 47.1466 72.4184 52.4292 82.3956C57.7118 92.3728 84.7058 128.168 57.7118 144.599C30.7178 161.03 13.6987 142.838 9.00647 176.876C4.31186 210.912 -11.5336 212.085 14.8747 222.06C41.2831 232.037 38.3478 243.774 51.258 229.102C51.258 229.102 45.9777 249.64 57.7142 249.054C69.4507 248.469 88.8172 253.161 99.3801 239.665C109.943 226.169 128.721 217.366 130.481 236.144C132.24 254.922 151.606 274.287 168.623 273.701C185.642 273.115 204.421 277.781 205.006 291.291C205.592 304.801 213.81 326.515 228.479 324.168C243.149 321.821 252.538 334.145 247.258 348.815C241.978 363.484 231.415 403.976 240.802 409.845C250.191 415.713 268.969 405.738 274.252 414.539C279.534 423.34 267.21 441.533 280.708 439.186C294.206 436.839 298.313 448.575 295.38 458.552C292.445 468.527 311.811 465.006 303.008 480.266C294.206 495.523 261.342 512.543 255.473 528.974C249.605 545.405 280.12 539.537 284.815 549.514C289.509 559.489 311.809 575.922 322.96 563.598C334.108 551.273 351.127 540.713 352.887 527.214C354.646 513.716 374.6 516.066 373.424 497.873C372.251 479.68 371.665 459.143 388.682 449.753C405.699 440.364 427.998 425.107 448.538 427.454C469.076 429.801 479.053 423.933 479.053 415.718C479.053 407.502 483.748 396.353 490.789 391.071C497.831 385.791 497.831 365.836 500.764 359.382C503.7 352.926 519.543 336.495 518.369 324.173C517.195 311.851 512.624 288.375 518.431 280.16C524.237 271.944 538.907 272.53 541.842 262.555C544.777 252.578 570.598 240.255 574.119 229.693C577.64 219.13 596.418 177.464 578.225 165.142C560.035 152.819 538.909 152.819 534.212 144.016C529.515 135.212 496.655 121.129 484.919 122.89C473.182 124.652 454.404 105.873 443.841 115.848C433.278 125.825 439.734 100.005 425.651 95.8962C411.567 91.7872 391.027 81.8123 384.573 90.6135C378.117 99.4148 338.215 108.218 339.388 104.109C340.562 100 372.251 97.6555 371.663 90.6135C371.075 83.5716 355.232 73.0088 348.19 81.81C341.148 90.6135 322.957 103.524 326.476 94.1345C329.997 84.7453 354.058 77.7034 355.817 66.5525C357.576 55.404 347.016 52.4687 346.428 42.4938C345.84 32.519 344.669 2.58965 335.277 11.3909C325.893 20.1921 334.696 36.0352 295.378 42.4915Z" fill="white"/>
</mask>
<g mask="url(#mask0_335_1485)">
<path d="M295.378 42.4915C275.587 45.7397 263.689 28.9933 266.622 46.5981C266.622 46.5981 248.429 42.4915 239.628 50.707C230.827 58.9226 212.046 60.0962 210.872 47.7717C209.699 35.4472 216.741 11.3885 210.872 9.62919C205.004 7.8699 206.178 -9.14924 192.094 6.69388C178.01 22.5394 159.232 25.4723 151.016 19.0184C142.8 12.5645 125.784 17.987 139.865 28.4788C153.949 38.9705 165.686 40.1441 153.949 46.0124C142.212 51.8807 123.434 56.5753 122.26 66.5525C121.087 76.5297 98.2016 64.7908 97.028 54.228C95.8543 43.6651 54.7765 46.0124 56.5358 55.4016C58.2951 64.7908 75.9023 61.2699 70.034 66.5501C64.1658 71.8327 47.1466 72.4184 52.4292 82.3956C57.7118 92.3728 84.7058 128.168 57.7118 144.599C30.7178 161.03 13.6987 142.838 9.00647 176.876C4.31186 210.912 -11.5336 212.085 14.8747 222.06C41.2831 232.037 38.3478 243.774 51.258 229.102C51.258 229.102 45.9777 249.64 57.7142 249.054C69.4507 248.469 88.8172 253.161 99.3801 239.665C109.943 226.169 128.721 217.366 130.481 236.144C132.24 254.922 151.606 274.287 168.623 273.701C185.642 273.115 204.421 277.781 205.006 291.291C205.592 304.801 213.81 326.515 228.479 324.168C243.149 321.821 252.538 334.145 247.258 348.815C241.978 363.484 231.415 403.976 240.802 409.845C250.191 415.713 268.969 405.738 274.252 414.539C279.534 423.34 267.21 441.533 280.708 439.186C294.206 436.839 298.313 448.575 295.38 458.552C292.445 468.527 311.811 465.006 303.008 480.266C294.206 495.523 261.342 512.543 255.473 528.974C249.605 545.405 280.12 539.537 284.815 549.514C289.509 559.489 311.809 575.922 322.96 563.598C334.108 551.273 351.127 540.713 352.887 527.214C354.646 513.716 374.6 516.066 373.424 497.873C372.251 479.68 371.665 459.143 388.682 449.753C405.699 440.364 427.998 425.107 448.538 427.454C469.076 429.801 479.053 423.933 479.053 415.718C479.053 407.502 483.748 396.353 490.789 391.071C497.831 385.791 497.831 365.836 500.764 359.382C503.7 352.926 519.543 336.495 518.369 324.173C517.195 311.851 512.624 288.375 518.431 280.16C524.237 271.944 538.907 272.53 541.842 262.555C544.777 252.578 570.598 240.255 574.119 229.693C577.64 219.13 596.418 177.464 578.225 165.142C560.035 152.819 538.909 152.819 534.212 144.016C529.515 135.212 496.655 121.129 484.919 122.89C473.182 124.652 454.404 105.873 443.841 115.848C433.278 125.825 439.734 100.005 425.651 95.8962C411.567 91.7872 391.027 81.8123 384.573 90.6135C378.117 99.4148 338.215 108.218 339.388 104.109C340.562 100 372.251 97.6555 371.663 90.6135C371.075 83.5716 355.232 73.0088 348.19 81.81C341.148 90.6135 322.957 103.524 326.476 94.1345C329.997 84.7453 354.058 77.7034 355.817 66.5525C357.576 55.404 347.016 52.4687 346.428 42.4938C345.84 32.519 344.669 2.58965 335.277 11.3909C325.893 20.1921 334.696 36.0352 295.378 42.4915Z" fill="#FFFAE6"/>
</g>
<mask id="mask1_335_1485" style="mask-type:luminance" maskUnits="userSpaceOnUse" x="0" y="0" width="587" height="568">
<path d="M295.378 42.4915C275.587 45.7397 263.689 28.9933 266.622 46.5981C266.622 46.5981 248.429 42.4915 239.628 50.707C230.827 58.9226 212.046 60.0962 210.872 47.7717C209.699 35.4472 216.741 11.3885 210.872 9.62919C205.004 7.8699 206.178 -9.14924 192.094 6.69388C178.01 22.5394 159.232 25.4723 151.016 19.0184C142.8 12.5645 125.784 17.987 139.865 28.4788C153.949 38.9705 165.686 40.1441 153.949 46.0124C142.212 51.8807 123.434 56.5753 122.26 66.5525C121.087 76.5297 98.2016 64.7908 97.028 54.228C95.8543 43.6651 54.7765 46.0124 56.5358 55.4016C58.2951 64.7908 75.9023 61.2699 70.034 66.5501C64.1658 71.8327 47.1466 72.4184 52.4292 82.3956C57.7118 92.3728 84.7058 128.168 57.7118 144.599C30.7178 161.03 13.6987 142.838 9.00647 176.876C4.31186 210.912 -11.5336 212.085 14.8747 222.06C41.2831 232.037 38.3478 243.774 51.258 229.102C51.258 229.102 45.9777 249.64 57.7142 249.054C69.4507 248.469 88.8172 253.161 99.3801 239.665C109.943 226.169 128.721 217.366 130.481 236.144C132.24 254.922 151.606 274.287 168.623 273.701C185.642 273.115 204.421 277.781 205.006 291.291C205.592 304.801 213.81 326.515 228.479 324.168C243.149 321.821 252.538 334.145 247.258 348.815C241.978 363.484 231.415 403.976 240.802 409.845C250.191 415.713 268.969 405.738 274.252 414.539C279.534 423.34 267.21 441.533 280.708 439.186C294.206 436.839 298.313 448.575 295.38 458.552C292.445 468.527 311.811 465.006 303.008 480.266C294.206 495.523 261.342 512.543 255.473 528.974C249.605 545.405 280.12 539.537 284.815 549.514C289.509 559.489 311.809 575.922 322.96 563.598C334.108 551.273 351.127 540.713 352.887 527.214C354.646 513.716 374.6 516.066 373.424 497.873C372.251 479.68 371.665 459.143 388.682 449.753C405.699 440.364 427.998 425.107 448.538 427.454C469.076 429.801 479.053 423.933 479.053 415.718C479.053 407.502 483.748 396.353 490.789 391.071C497.831 385.791 497.831 365.836 500.764 359.382C503.7 352.926 519.543 336.495 518.369 324.173C517.195 311.851 512.624 288.375 518.431 280.16C524.237 271.944 538.907 272.53 541.842 262.555C544.777 252.578 570.598 240.255 574.119 229.693C577.64 219.13 596.418 177.464 578.225 165.142C560.035 152.819 538.909 152.819 534.212 144.016C529.515 135.212 496.655 121.129 484.919 122.89C473.182 124.652 454.404 105.873 443.841 115.848C433.278 125.825 439.734 100.005 425.651 95.8962C411.567 91.7872 391.027 81.8123 384.573 90.6135C378.117 99.4148 338.215 108.218 339.388 104.109C340.562 100 372.251 97.6555 371.663 90.6135C371.075 83.5716 355.232 73.0088 348.19 81.81C341.148 90.6135 322.957 103.524 326.476 94.1345C329.997 84.7453 354.058 77.7034 355.817 66.5525C357.576 55.404 347.016 52.4687 346.428 42.4938C345.84 32.519 344.669 2.58965 335.277 11.3909C325.893 20.1921 334.696 36.0352 295.378 42.4915Z" fill="white"/>
</mask>
<g mask="url(#mask1_335_1485)">
<path d="M533.334 381.978L521.391 402.662L509.448 381.978L497.508 402.662L485.565 381.978L473.622 402.662L461.682 381.978L449.739 402.662L437.796 381.978L425.856 402.662L413.913 381.978L401.97 402.662L390.03 381.978L378.087 402.662L366.146 381.978L354.203 402.662L342.261 381.978L330.32 402.662L318.377 381.978L306.435 402.662L294.494 381.978L282.551 402.662L270.609 381.978L258.668 402.662L246.725 381.978L234.783 402.662L222.842 381.978L203.68 415.167H227.563H242.002H251.449H265.888H275.332H289.771H299.215H313.654H323.101H337.54H346.984H361.423H370.867H385.306H394.75H409.19H418.636H433.075H442.519H456.958H466.402H480.842H490.288H504.727H514.171H528.611H552.494L533.334 381.978Z" fill="#FFFAE6"/>
</g>
<mask id="mask2_335_1485" style="mask-type:luminance" maskUnits="userSpaceOnUse" x="0" y="0" width="587" height="568">
<path d="M295.378 42.4915C275.587 45.7397 263.689 28.9933 266.622 46.5981C266.622 46.5981 248.429 42.4915 239.628 50.707C230.827 58.9226 212.046 60.0962 210.872 47.7717C209.699 35.4472 216.741 11.3885 210.872 9.62919C205.004 7.8699 206.178 -9.14924 192.094 6.69388C178.01 22.5394 159.232 25.4723 151.016 19.0184C142.8 12.5645 125.784 17.987 139.865 28.4788C153.949 38.9705 165.686 40.1441 153.949 46.0124C142.212 51.8807 123.434 56.5753 122.26 66.5525C121.087 76.5297 98.2016 64.7908 97.028 54.228C95.8543 43.6651 54.7765 46.0124 56.5358 55.4016C58.2951 64.7908 75.9023 61.2699 70.034 66.5501C64.1658 71.8327 47.1466 72.4184 52.4292 82.3956C57.7118 92.3728 84.7058 128.168 57.7118 144.599C30.7178 161.03 13.6987 142.838 9.00647 176.876C4.31186 210.912 -11.5336 212.085 14.8747 222.06C41.2831 232.037 38.3478 243.774 51.258 229.102C51.258 229.102 45.9777 249.64 57.7142 249.054C69.4507 248.469 88.8172 253.161 99.3801 239.665C109.943 226.169 128.721 217.366 130.481 236.144C132.24 254.922 151.606 274.287 168.623 273.701C185.642 273.115 204.421 277.781 205.006 291.291C205.592 304.801 213.81 326.515 228.479 324.168C243.149 321.821 252.538 334.145 247.258 348.815C241.978 363.484 231.415 403.976 240.802 409.845C250.191 415.713 268.969 405.738 274.252 414.539C279.534 423.34 267.21 441.533 280.708 439.186C294.206 436.839 298.313 448.575 295.38 458.552C292.445 468.527 311.811 465.006 303.008 480.266C294.206 495.523 261.342 512.543 255.473 528.974C249.605 545.405 280.12 539.537 284.815 549.514C289.509 559.489 311.809 575.922 322.96 563.598C334.108 551.273 351.127 540.713 352.887 527.214C354.646 513.716 374.6 516.066 373.424 497.873C372.251 479.68 371.665 459.143 388.682 449.753C405.699 440.364 427.998 425.107 448.538 427.454C469.076 429.801 479.053 423.933 479.053 415.718C479.053 407.502 483.748 396.353 490.789 391.071C497.831 385.791 497.831 365.836 500.764 359.382C503.7 352.926 519.543 336.495 518.369 324.173C517.195 311.851 512.624 288.375 518.431 280.16C524.237 271.944 538.907 272.53 541.842 262.555C544.777 252.578 570.598 240.255 574.119 229.693C577.64 219.13 596.418 177.464 578.225 165.142C560.035 152.819 538.909 152.819 534.212 144.016C529.515 135.212 496.655 121.129 484.919 122.89C473.182 124.652 454.404 105.873 443.841 115.848C433.278 125.825 439.734 100.005 425.651 95.8962C411.567 91.7872 391.027 81.8123 384.573 90.6135C378.117 99.4148 338.215 108.218 339.388 104.109C340.562 100 372.251 97.6555 371.663 90.6135C371.075 83.5716 355.232 73.0088 348.19 81.81C341.148 90.6135 322.957 103.524 326.476 94.1345C329.997 84.7453 354.058 77.7034 355.817 66.5525C357.576 55.404 347.016 52.4687 346.428 42.4938C345.84 32.519 344.669 2.58965 335.277 11.3909C325.893 20.1921 334.696 36.0352 295.378 42.4915Z" fill="white"/>
</mask>
<g mask="url(#mask2_335_1485)">
<path d="M44.3264 127.103L59.3468 101.086L74.3695 127.103L89.3899 101.086L104.413 127.103L119.433 101.086L134.456 127.103L149.476 101.086L164.499 127.103L179.519 101.086L194.54 127.103L209.562 101.086L224.583 127.103L239.605 101.086L254.626 127.103L269.649 101.086L284.669 127.103L299.692 101.086L314.712 127.103L329.735 101.086L344.755 127.103L359.778 101.086L374.798 127.103L389.819 101.086L404.841 127.103L419.862 101.086L434.885 127.103L458.986 85.3564H428.945H410.781H398.902H380.738H368.859H350.695H338.816H320.651H308.773H290.611H278.73H260.568H248.686H230.524H218.643H200.481H188.6H170.438H158.557H140.395H128.514H110.352H98.4708H80.3088H68.4301H50.2658H20.2227L44.3264 127.103Z" fill="#FFFAE6"/>
</g>
<mask id="mask3_335_1485" style="mask-type:luminance" maskUnits="userSpaceOnUse" x="0" y="0" width="587" height="568">
<path d="M295.378 42.4915C275.587 45.7397 263.689 28.9933 266.622 46.5981C266.622 46.5981 248.429 42.4915 239.628 50.707C230.827 58.9226 212.046 60.0962 210.872 47.7717C209.699 35.4472 216.741 11.3885 210.872 9.62919C205.004 7.8699 206.178 -9.14924 192.094 6.69388C178.01 22.5394 159.232 25.4723 151.016 19.0184C142.8 12.5645 125.784 17.987 139.865 28.4788C153.949 38.9705 165.686 40.1441 153.949 46.0124C142.212 51.8807 123.434 56.5753 122.26 66.5525C121.087 76.5297 98.2016 64.7908 97.028 54.228C95.8543 43.6651 54.7765 46.0124 56.5358 55.4016C58.2951 64.7908 75.9023 61.2699 70.034 66.5501C64.1658 71.8327 47.1466 72.4184 52.4292 82.3956C57.7118 92.3728 84.7058 128.168 57.7118 144.599C30.7178 161.03 13.6987 142.838 9.00647 176.876C4.31186 210.912 -11.5336 212.085 14.8747 222.06C41.2831 232.037 38.3478 243.774 51.258 229.102C51.258 229.102 45.9777 249.64 57.7142 249.054C69.4507 248.469 88.8172 253.161 99.3801 239.665C109.943 226.169 128.721 217.366 130.481 236.144C132.24 254.922 151.606 274.287 168.623 273.701C185.642 273.115 204.421 277.781 205.006 291.291C205.592 304.801 213.81 326.515 228.479 324.168C243.149 321.821 252.538 334.145 247.258 348.815C241.978 363.484 231.415 403.976 240.802 409.845C250.191 415.713 268.969 405.738 274.252 414.539C279.534 423.34 267.21 441.533 280.708 439.186C294.206 436.839 298.313 448.575 295.38 458.552C292.445 468.527 311.811 465.006 303.008 480.266C294.206 495.523 261.342 512.543 255.473 528.974C249.605 545.405 280.12 539.537 284.815 549.514C289.509 559.489 311.809 575.922 322.96 563.598C334.108 551.273 351.127 540.713 352.887 527.214C354.646 513.716 374.6 516.066 373.424 497.873C372.251 479.68 371.665 459.143 388.682 449.753C405.699 440.364 427.998 425.107 448.538 427.454C469.076 429.801 479.053 423.933 479.053 415.718C479.053 407.502 483.748 396.353 490.789 391.071C497.831 385.791 497.831 365.836 500.764 359.382C503.7 352.926 519.543 336.495 518.369 324.173C517.195 311.851 512.624 288.375 518.431 280.16C524.237 271.944 538.907 272.53 541.842 262.555C544.777 252.578 570.598 240.255 574.119 229.693C577.64 219.13 596.418 177.464 578.225 165.142C560.035 152.819 538.909 152.819 534.212 144.016C529.515 135.212 496.655 121.129 484.919 122.89C473.182 124.652 454.404 105.873 443.841 115.848C433.278 125.825 439.734 100.005 425.651 95.8962C411.567 91.7872 391.027 81.8123 384.573 90.6135C378.117 99.4148 338.215 108.218 339.388 104.109C340.562 100 372.251 97.6555 371.663 90.6135C371.075 83.5716 355.232 73.0088 348.19 81.81C341.148 90.6135 322.957 103.524 326.476 94.1345C329.997 84.7453 354.058 77.7034 355.817 66.5525C357.576 55.404 347.016 52.4687 346.428 42.4938C345.84 32.519 344.669 2.58965 335.277 11.3909C325.893 20.1921 334.696 36.0352 295.378 42.4915Z" fill="white"/>
</mask>
<g mask="url(#mask3_335_1485)">
<path d="M357.722 335.9L239.605 257.581L357.722 179.264L475.839 257.581L357.722 335.9Z" fill="#FFFAE6"/>
<path d="M404.824 257.573C404.824 261.116 404.426 264.558 403.67 267.861C402.913 271.382 401.74 274.747 400.227 277.91C392.626 293.75 376.448 304.674 357.722 304.674C331.714 304.674 310.641 283.581 310.641 257.571C310.641 253.95 311.039 250.446 311.836 247.065C312.611 243.563 313.806 240.201 315.338 237.057C322.958 221.337 339.079 210.492 357.724 210.492C383.73 210.49 404.824 231.563 404.824 257.573Z" fill="#FFFAE6"/>
<path d="M340.268 232.777C331.533 232.777 323.135 234.29 315.334 237.057C313.802 240.201 312.607 243.563 311.832 247.065C320.467 243.006 330.101 240.737 340.268 240.737C366.496 240.737 389.241 255.899 400.226 277.91C401.739 274.747 402.912 271.382 403.669 267.861C390.393 246.807 366.932 232.777 340.268 232.777Z" fill="#FFFAE6"/>
</g>
<mask id="mask4_335_1485" style="mask-type:luminance" maskUnits="userSpaceOnUse" x="0" y="0" width="587" height="568">
<path d="M295.378 42.4915C275.587 45.7397 263.689 28.9933 266.622 46.5981C266.622 46.5981 248.429 42.4915 239.628 50.707C230.827 58.9226 212.046 60.0962 210.872 47.7717C209.699 35.4472 216.741 11.3885 210.872 9.62919C205.004 7.8699 206.178 -9.14924 192.094 6.69388C178.01 22.5394 159.232 25.4723 151.016 19.0184C142.8 12.5645 125.784 17.987 139.865 28.4788C153.949 38.9705 165.686 40.1441 153.949 46.0124C142.212 51.8807 123.434 56.5753 122.26 66.5525C121.087 76.5297 98.2016 64.7908 97.028 54.228C95.8543 43.6651 54.7765 46.0124 56.5358 55.4016C58.2951 64.7908 75.9023 61.2699 70.034 66.5501C64.1658 71.8327 47.1466 72.4184 52.4292 82.3956C57.7118 92.3728 84.7058 128.168 57.7118 144.599C30.7178 161.03 13.6987 142.838 9.00647 176.876C4.31186 210.912 -11.5336 212.085 14.8747 222.06C41.2831 232.037 38.3478 243.774 51.258 229.102C51.258 229.102 45.9777 249.64 57.7142 249.054C69.4507 248.469 88.8172 253.161 99.3801 239.665C109.943 226.169 128.721 217.366 130.481 236.144C132.24 254.922 151.606 274.287 168.623 273.701C185.642 273.115 204.421 277.781 205.006 291.291C205.592 304.801 213.81 326.515 228.479 324.168C243.149 321.821 252.538 334.145 247.258 348.815C241.978 363.484 231.415 403.976 240.802 409.845C250.191 415.713 268.969 405.738 274.252 414.539C279.534 423.34 267.21 441.533 280.708 439.186C294.206 436.839 298.313 448.575 295.38 458.552C292.445 468.527 311.811 465.006 303.008 480.266C294.206 495.523 261.342 512.543 255.473 528.974C249.605 545.405 280.12 539.537 284.815 549.514C289.509 559.489 311.809 575.922 322.96 563.598C334.108 551.273 351.127 540.713 352.887 527.214C354.646 513.716 374.6 516.066 373.424 497.873C372.251 479.68 371.665 459.143 388.682 449.753C405.699 440.364 427.998 425.107 448.538 427.454C469.076 429.801 479.053 423.933 479.053 415.718C479.053 407.502 483.748 396.353 490.789 391.071C497.831 385.791 497.831 365.836 500.764 359.382C503.7 352.926 519.543 336.495 518.369 324.173C517.195 311.851 512.624 288.375 518.431 280.16C524.237 271.944 538.907 272.53 541.842 262.555C544.777 252.578 570.598 240.255 574.119 229.693C577.64 219.13 596.418 177.464 578.225 165.142C560.035 152.819 538.909 152.819 534.212 144.016C529.515 135.212 496.655 121.129 484.919 122.89C473.182 124.652 454.404 105.873 443.841 115.848C433.278 125.825 439.734 100.005 425.651 95.8962C411.567 91.7872 391.027 81.8123 384.573 90.6135C378.117 99.4148 338.215 108.218 339.388 104.109C340.562 100 372.251 97.6555 371.663 90.6135C371.075 83.5716 355.232 73.0088 348.19 81.81C341.148 90.6135 322.957 103.524 326.476 94.1345C329.997 84.7453 354.058 77.7034 355.817 66.5525C357.576 55.404 347.016 52.4687 346.428 42.4938C345.84 32.519 344.669 2.58965 335.277 11.3909C325.893 20.1921 334.696 36.0352 295.378 42.4915Z" fill="white"/>
</mask>
<g mask="url(#mask4_335_1485)">
<path d="M615.64 144.315H1.43359V157.052H615.64V144.315Z" fill="#FFFAE6"/>
</g>
<mask id="mask5_335_1485" style="mask-type:luminance" maskUnits="userSpaceOnUse" x="0" y="0" width="587" height="568">
<path d="M295.378 42.4915C275.587 45.7397 263.689 28.9933 266.622 46.5981C266.622 46.5981 248.429 42.4915 239.628 50.707C230.827 58.9226 212.046 60.0962 210.872 47.7717C209.699 35.4472 216.741 11.3885 210.872 9.62919C205.004 7.8699 206.178 -9.14924 192.094 6.69388C178.01 22.5394 159.232 25.4723 151.016 19.0184C142.8 12.5645 125.784 17.987 139.865 28.4788C153.949 38.9705 165.686 40.1441 153.949 46.0124C142.212 51.8807 123.434 56.5753 122.26 66.5525C121.087 76.5297 98.2016 64.7908 97.028 54.228C95.8543 43.6651 54.7765 46.0124 56.5358 55.4016C58.2951 64.7908 75.9023 61.2699 70.034 66.5501C64.1658 71.8327 47.1466 72.4184 52.4292 82.3956C57.7118 92.3728 84.7058 128.168 57.7118 144.599C30.7178 161.03 13.6987 142.838 9.00647 176.876C4.31186 210.912 -11.5336 212.085 14.8747 222.06C41.2831 232.037 38.3478 243.774 51.258 229.102C51.258 229.102 45.9777 249.64 57.7142 249.054C69.4507 248.469 88.8172 253.161 99.3801 239.665C109.943 226.169 128.721 217.366 130.481 236.144C132.24 254.922 151.606 274.287 168.623 273.701C185.642 273.115 204.421 277.781 205.006 291.291C205.592 304.801 213.81 326.515 228.479 324.168C243.149 321.821 252.538 334.145 247.258 348.815C241.978 363.484 231.415 403.976 240.802 409.845C250.191 415.713 268.969 405.738 274.252 414.539C279.534 423.34 267.21 441.533 280.708 439.186C294.206 436.839 298.313 448.575 295.38 458.552C292.445 468.527 311.811 465.006 303.008 480.266C294.206 495.523 261.342 512.543 255.473 528.974C249.605 545.405 280.12 539.537 284.815 549.514C289.509 559.489 311.809 575.922 322.96 563.598C334.108 551.273 351.127 540.713 352.887 527.214C354.646 513.716 374.6 516.066 373.424 497.873C372.251 479.68 371.665 459.143 388.682 449.753C405.699 440.364 427.998 425.107 448.538 427.454C469.076 429.801 479.053 423.933 479.053 415.718C479.053 407.502 483.748 396.353 490.789 391.071C497.831 385.791 497.831 365.836 500.764 359.382C503.7 352.926 519.543 336.495 518.369 324.173C517.195 311.851 512.624 288.375 518.431 280.16C524.237 271.944 538.907 272.53 541.842 262.555C544.777 252.578 570.598 240.255 574.119 229.693C577.64 219.13 596.418 177.464 578.225 165.142C560.035 152.819 538.909 152.819 534.212 144.016C529.515 135.212 496.655 121.129 484.919 122.89C473.182 124.652 454.404 105.873 443.841 115.848C433.278 125.825 439.734 100.005 425.651 95.8962C411.567 91.7872 391.027 81.8123 384.573 90.6135C378.117 99.4148 338.215 108.218 339.388 104.109C340.562 100 372.251 97.6555 371.663 90.6135C371.075 83.5716 355.232 73.0088 348.19 81.81C341.148 90.6135 322.957 103.524 326.476 94.1345C329.997 84.7453 354.058 77.7034 355.817 66.5525C357.576 55.404 347.016 52.4687 346.428 42.4938C345.84 32.519 344.669 2.58965 335.277 11.3909C325.893 20.1921 334.696 36.0352 295.378 42.4915Z" fill="white"/>
</mask>
<g mask="url(#mask5_335_1485)">
<path d="M406.345 445.832H210.727V473.047H406.345V445.832Z" fill="#FFFAE6"/>
</g>
<mask id="mask6_335_1485" style="mask-type:luminance" maskUnits="userSpaceOnUse" x="0" y="0" width="587" height="568">
<path d="M295.378 42.4915C275.587 45.7397 263.689 28.9933 266.622 46.5981C266.622 46.5981 248.429 42.4915 239.628 50.707C230.827 58.9226 212.046 60.0962 210.872 47.7717C209.699 35.4472 216.741 11.3885 210.872 9.62919C205.004 7.8699 206.178 -9.14924 192.094 6.69388C178.01 22.5394 159.232 25.4723 151.016 19.0184C142.8 12.5645 125.784 17.987 139.865 28.4788C153.949 38.9705 165.686 40.1441 153.949 46.0124C142.212 51.8807 123.434 56.5753 122.26 66.5525C121.087 76.5297 98.2016 64.7908 97.028 54.228C95.8543 43.6651 54.7765 46.0124 56.5358 55.4016C58.2951 64.7908 75.9023 61.2699 70.034 66.5501C64.1658 71.8327 47.1466 72.4184 52.4292 82.3956C57.7118 92.3728 84.7058 128.168 57.7118 144.599C30.7178 161.03 13.6987 142.838 9.00647 176.876C4.31186 210.912 -11.5336 212.085 14.8747 222.06C41.2831 232.037 38.3478 243.774 51.258 229.102C51.258 229.102 45.9777 249.64 57.7142 249.054C69.4507 248.469 88.8172 253.161 99.3801 239.665C109.943 226.169 128.721 217.366 130.481 236.144C132.24 254.922 151.606 274.287 168.623 273.701C185.642 273.115 204.421 277.781 205.006 291.291C205.592 304.801 213.81 326.515 228.479 324.168C243.149 321.821 252.538 334.145 247.258 348.815C241.978 363.484 231.415 403.976 240.802 409.845C250.191 415.713 268.969 405.738 274.252 414.539C279.534 423.34 267.21 441.533 280.708 439.186C294.206 436.839 298.313 448.575 295.38 458.552C292.445 468.527 311.811 465.006 303.008 480.266C294.206 495.523 261.342 512.543 255.473 528.974C249.605 545.405 280.12 539.537 284.815 549.514C289.509 559.489 311.809 575.922 322.96 563.598C334.108 551.273 351.127 540.713 352.887 527.214C354.646 513.716 374.6 516.066 373.424 497.873C372.251 479.68 371.665 459.143 388.682 449.753C405.699 440.364 427.998 425.107 448.538 427.454C469.076 429.801 479.053 423.933 479.053 415.718C479.053 407.502 483.748 396.353 490.789 391.071C497.831 385.791 497.831 365.836 500.764 359.382C503.7 352.926 519.543 336.495 518.369 324.173C517.195 311.851 512.624 288.375 518.431 280.16C524.237 271.944 538.907 272.53 541.842 262.555C544.777 252.578 570.598 240.255 574.119 229.693C577.64 219.13 596.418 177.464 578.225 165.142C560.035 152.819 538.909 152.819 534.212 144.016C529.515 135.212 496.655 121.129 484.919 122.89C473.182 124.652 454.404 105.873 443.841 115.848C433.278 125.825 439.734 100.005 425.651 95.8962C411.567 91.7872 391.027 81.8123 384.573 90.6135C378.117 99.4148 338.215 108.218 339.388 104.109C340.562 100 372.251 97.6555 371.663 90.6135C371.075 83.5716 355.232 73.0088 348.19 81.81C341.148 90.6135 322.957 103.524 326.476 94.1345C329.997 84.7453 354.058 77.7034 355.817 66.5525C357.576 55.404 347.016 52.4687 346.428 42.4938C345.84 32.519 344.669 2.58965 335.277 11.3909C325.893 20.1921 334.696 36.0352 295.378 42.4915Z" fill="white"/>
</mask>
<g mask="url(#mask6_335_1485)">
<path d="M642.606 179.518H446.988V206.732H642.606V179.518Z" fill="#FFFAE6"/>
</g>
<mask id="mask7_335_1485" style="mask-type:luminance" maskUnits="userSpaceOnUse" x="0" y="0" width="587" height="568">
<path d="M295.378 42.4915C275.587 45.7397 263.689 28.9933 266.622 46.5981C266.622 46.5981 248.429 42.4915 239.628 50.707C230.827 58.9226 212.046 60.0962 210.872 47.7717C209.699 35.4472 216.741 11.3885 210.872 9.62919C205.004 7.8699 206.178 -9.14924 192.094 6.69388C178.01 22.5394 159.232 25.4723 151.016 19.0184C142.8 12.5645 125.784 17.987 139.865 28.4788C153.949 38.9705 165.686 40.1441 153.949 46.0124C142.212 51.8807 123.434 56.5753 122.26 66.5525C121.087 76.5297 98.2016 64.7908 97.028 54.228C95.8543 43.6651 54.7765 46.0124 56.5358 55.4016C58.2951 64.7908 75.9023 61.2699 70.034 66.5501C64.1658 71.8327 47.1466 72.4184 52.4292 82.3956C57.7118 92.3728 84.7058 128.168 57.7118 144.599C30.7178 161.03 13.6987 142.838 9.00647 176.876C4.31186 210.912 -11.5336 212.085 14.8747 222.06C41.2831 232.037 38.3478 243.774 51.258 229.102C51.258 229.102 45.9777 249.64 57.7142 249.054C69.4507 248.469 88.8172 253.161 99.3801 239.665C109.943 226.169 128.721 217.366 130.481 236.144C132.24 254.922 151.606 274.287 168.623 273.701C185.642 273.115 204.421 277.781 205.006 291.291C205.592 304.801 213.81 326.515 228.479 324.168C243.149 321.821 252.538 334.145 247.258 348.815C241.978 363.484 231.415 403.976 240.802 409.845C250.191 415.713 268.969 405.738 274.252 414.539C279.534 423.34 267.21 441.533 280.708 439.186C294.206 436.839 298.313 448.575 295.38 458.552C292.445 468.527 311.811 465.006 303.008 480.266C294.206 495.523 261.342 512.543 255.473 528.974C249.605 545.405 280.12 539.537 284.815 549.514C289.509 559.489 311.809 575.922 322.96 563.598C334.108 551.273 351.127 540.713 352.887 527.214C354.646 513.716 374.6 516.066 373.424 497.873C372.251 479.68 371.665 459.143 388.682 449.753C405.699 440.364 427.998 425.107 448.538 427.454C469.076 429.801 479.053 423.933 479.053 415.718C479.053 407.502 483.748 396.353 490.789 391.071C497.831 385.791 497.831 365.836 500.764 359.382C503.7 352.926 519.543 336.495 518.369 324.173C517.195 311.851 512.624 288.375 518.431 280.16C524.237 271.944 538.907 272.53 541.842 262.555C544.777 252.578 570.598 240.255 574.119 229.693C577.64 219.13 596.418 177.464 578.225 165.142C560.035 152.819 538.909 152.819 534.212 144.016C529.515 135.212 496.655 121.129 484.919 122.89C473.182 124.652 454.404 105.873 443.841 115.848C433.278 125.825 439.734 100.005 425.651 95.8962C411.567 91.7872 391.027 81.8123 384.573 90.6135C378.117 99.4148 338.215 108.218 339.388 104.109C340.562 100 372.251 97.6555 371.663 90.6135C371.075 83.5716 355.232 73.0088 348.19 81.81C341.148 90.6135 322.957 103.524 326.476 94.1345C329.997 84.7453 354.058 77.7034 355.817 66.5525C357.576 55.404 347.016 52.4687 346.428 42.4938C345.84 32.519 344.669 2.58965 335.277 11.3909C325.893 20.1921 334.696 36.0352 295.378 42.4915Z" fill="white"/>
</mask>
<g mask="url(#mask7_335_1485)">
<path d="M57.7454 181.359C57.7454 187.517 52.7544 192.505 46.5993 192.505C40.4441 192.505 35.4531 187.514 35.4531 181.359C35.4531 175.204 40.4441 170.213 46.5993 170.213C52.7544 170.213 57.7454 175.202 57.7454 181.359Z" fill="#FFFAE6"/>
</g>
<mask id="mask8_335_1485" style="mask-type:luminance" maskUnits="userSpaceOnUse" x="0" y="0" width="587" height="568">
<path d="M295.378 42.4915C275.587 45.7397 263.689 28.9933 266.622 46.5981C266.622 46.5981 248.429 42.4915 239.628 50.707C230.827 58.9226 212.046 60.0962 210.872 47.7717C209.699 35.4472 216.741 11.3885 210.872 9.62919C205.004 7.8699 206.178 -9.14924 192.094 6.69388C178.01 22.5394 159.232 25.4723 151.016 19.0184C142.8 12.5645 125.784 17.987 139.865 28.4788C153.949 38.9705 165.686 40.1441 153.949 46.0124C142.212 51.8807 123.434 56.5753 122.26 66.5525C121.087 76.5297 98.2016 64.7908 97.028 54.228C95.8543 43.6651 54.7765 46.0124 56.5358 55.4016C58.2951 64.7908 75.9023 61.2699 70.034 66.5501C64.1658 71.8327 47.1466 72.4184 52.4292 82.3956C57.7118 92.3728 84.7058 128.168 57.7118 144.599C30.7178 161.03 13.6987 142.838 9.00647 176.876C4.31186 210.912 -11.5336 212.085 14.8747 222.06C41.2831 232.037 38.3478 243.774 51.258 229.102C51.258 229.102 45.9777 249.64 57.7142 249.054C69.4507 248.469 88.8172 253.161 99.3801 239.665C109.943 226.169 128.721 217.366 130.481 236.144C132.24 254.922 151.606 274.287 168.623 273.701C185.642 273.115 204.421 277.781 205.006 291.291C205.592 304.801 213.81 326.515 228.479 324.168C243.149 321.821 252.538 334.145 247.258 348.815C241.978 363.484 231.415 403.976 240.802 409.845C250.191 415.713 268.969 405.738 274.252 414.539C279.534 423.34 267.21 441.533 280.708 439.186C294.206 436.839 298.313 448.575 295.38 458.552C292.445 468.527 311.811 465.006 303.008 480.266C294.206 495.523 261.342 512.543 255.473 528.974C249.605 545.405 280.12 539.537 284.815 549.514C289.509 559.489 311.809 575.922 322.96 563.598C334.108 551.273 351.127 540.713 352.887 527.214C354.646 513.716 374.6 516.066 373.424 497.873C372.251 479.68 371.665 459.143 388.682 449.753C405.699 440.364 427.998 425.107 448.538 427.454C469.076 429.801 479.053 423.933 479.053 415.718C479.053 407.502 483.748 396.353 490.789 391.071C497.831 385.791 497.831 365.836 500.764 359.382C503.7 352.926 519.543 336.495 518.369 324.173C517.195 311.851 512.624 288.375 518.431 280.16C524.237 271.944 538.907 272.53 541.842 262.555C544.777 252.578 570.598 240.255 574.119 229.693C577.64 219.13 596.418 177.464 578.225 165.142C560.035 152.819 538.909 152.819 534.212 144.016C529.515 135.212 496.655 121.129 484.919 122.89C473.182 124.652 454.404 105.873 443.841 115.848C433.278 125.825 439.734 100.005 425.651 95.8962C411.567 91.7872 391.027 81.8123 384.573 90.6135C378.117 99.4148 338.215 108.218 339.388 104.109C340.562 100 372.251 97.6555 371.663 90.6135C371.075 83.5716 355.232 73.0088 348.19 81.81C341.148 90.6135 322.957 103.524 326.476 94.1345C329.997 84.7453 354.058 77.7034 355.817 66.5525C357.576 55.404 347.016 52.4687 346.428 42.4938C345.84 32.519 344.669 2.58965 335.277 11.3909C325.893 20.1921 334.696 36.0352 295.378 42.4915Z" fill="white"/>
</mask>
<g mask="url(#mask8_335_1485)">
<path d="M91.6595 181.359C91.6595 187.517 86.6685 192.505 80.5133 192.505C74.3581 192.505 69.3672 187.514 69.3672 181.359C69.3672 175.204 74.3581 170.213 80.5133 170.213C86.6685 170.213 91.6595 175.202 91.6595 181.359Z" fill="#FFFAE6"/>
</g>
<mask id="mask9_335_1485" style="mask-type:luminance" maskUnits="userSpaceOnUse" x="0" y="0" width="587" height="568">
<path d="M295.378 42.4915C275.587 45.7397 263.689 28.9933 266.622 46.5981C266.622 46.5981 248.429 42.4915 239.628 50.707C230.827 58.9226 212.046 60.0962 210.872 47.7717C209.699 35.4472 216.741 11.3885 210.872 9.62919C205.004 7.8699 206.178 -9.14924 192.094 6.69388C178.01 22.5394 159.232 25.4723 151.016 19.0184C142.8 12.5645 125.784 17.987 139.865 28.4788C153.949 38.9705 165.686 40.1441 153.949 46.0124C142.212 51.8807 123.434 56.5753 122.26 66.5525C121.087 76.5297 98.2016 64.7908 97.028 54.228C95.8543 43.6651 54.7765 46.0124 56.5358 55.4016C58.2951 64.7908 75.9023 61.2699 70.034 66.5501C64.1658 71.8327 47.1466 72.4184 52.4292 82.3956C57.7118 92.3728 84.7058 128.168 57.7118 144.599C30.7178 161.03 13.6987 142.838 9.00647 176.876C4.31186 210.912 -11.5336 212.085 14.8747 222.06C41.2831 232.037 38.3478 243.774 51.258 229.102C51.258 229.102 45.9777 249.64 57.7142 249.054C69.4507 248.469 88.8172 253.161 99.3801 239.665C109.943 226.169 128.721 217.366 130.481 236.144C132.24 254.922 151.606 274.287 168.623 273.701C185.642 273.115 204.421 277.781 205.006 291.291C205.592 304.801 213.81 326.515 228.479 324.168C243.149 321.821 252.538 334.145 247.258 348.815C241.978 363.484 231.415 403.976 240.802 409.845C250.191 415.713 268.969 405.738 274.252 414.539C279.534 423.34 267.21 441.533 280.708 439.186C294.206 436.839 298.313 448.575 295.38 458.552C292.445 468.527 311.811 465.006 303.008 480.266C294.206 495.523 261.342 512.543 255.473 528.974C249.605 545.405 280.12 539.537 284.815 549.514C289.509 559.489 311.809 575.922 322.96 563.598C334.108 551.273 351.127 540.713 352.887 527.214C354.646 513.716 374.6 516.066 373.424 497.873C372.251 479.68 371.665 459.143 388.682 449.753C405.699 440.364 427.998 425.107 448.538 427.454C469.076 429.801 479.053 423.933 479.053 415.718C479.053 407.502 483.748 396.353 490.789 391.071C497.831 385.791 497.831 365.836 500.764 359.382C503.7 352.926 519.543 336.495 518.369 324.173C517.195 311.851 512.624 288.375 518.431 280.16C524.237 271.944 538.907 272.53 541.842 262.555C544.777 252.578 570.598 240.255 574.119 229.693C577.64 219.13 596.418 177.464 578.225 165.142C560.035 152.819 538.909 152.819 534.212 144.016C529.515 135.212 496.655 121.129 484.919 122.89C473.182 124.652 454.404 105.873 443.841 115.848C433.278 125.825 439.734 100.005 425.651 95.8962C411.567 91.7872 391.027 81.8123 384.573 90.6135C378.117 99.4148 338.215 108.218 339.388 104.109C340.562 100 372.251 97.6555 371.663 90.6135C371.075 83.5716 355.232 73.0088 348.19 81.81C341.148 90.6135 322.957 103.524 326.476 94.1345C329.997 84.7453 354.058 77.7034 355.817 66.5525C357.576 55.404 347.016 52.4687 346.428 42.4938C345.84 32.519 344.669 2.58965 335.277 11.3909C325.893 20.1921 334.696 36.0352 295.378 42.4915Z" fill="white"/>
</mask>
<g mask="url(#mask9_335_1485)">
<path d="M125.574 181.359C125.574 187.517 120.583 192.505 114.427 192.505C108.272 192.505 103.281 187.514 103.281 181.359C103.281 175.204 108.272 170.213 114.427 170.213C120.583 170.213 125.574 175.202 125.574 181.359Z" fill="#FFFAE6"/>
</g>
<mask id="mask10_335_1485" style="mask-type:luminance" maskUnits="userSpaceOnUse" x="0" y="0" width="587" height="568">
<path d="M295.378 42.4915C275.587 45.7397 263.689 28.9933 266.622 46.5981C266.622 46.5981 248.429 42.4915 239.628 50.707C230.827 58.9226 212.046 60.0962 210.872 47.7717C209.699 35.4472 216.741 11.3885 210.872 9.62919C205.004 7.8699 206.178 -9.14924 192.094 6.69388C178.01 22.5394 159.232 25.4723 151.016 19.0184C142.8 12.5645 125.784 17.987 139.865 28.4788C153.949 38.9705 165.686 40.1441 153.949 46.0124C142.212 51.8807 123.434 56.5753 122.26 66.5525C121.087 76.5297 98.2016 64.7908 97.028 54.228C95.8543 43.6651 54.7765 46.0124 56.5358 55.4016C58.2951 64.7908 75.9023 61.2699 70.034 66.5501C64.1658 71.8327 47.1466 72.4184 52.4292 82.3956C57.7118 92.3728 84.7058 128.168 57.7118 144.599C30.7178 161.03 13.6987 142.838 9.00647 176.876C4.31186 210.912 -11.5336 212.085 14.8747 222.06C41.2831 232.037 38.3478 243.774 51.258 229.102C51.258 229.102 45.9777 249.64 57.7142 249.054C69.4507 248.469 88.8172 253.161 99.3801 239.665C109.943 226.169 128.721 217.366 130.481 236.144C132.24 254.922 151.606 274.287 168.623 273.701C185.642 273.115 204.421 277.781 205.006 291.291C205.592 304.801 213.81 326.515 228.479 324.168C243.149 321.821 252.538 334.145 247.258 348.815C241.978 363.484 231.415 403.976 240.802 409.845C250.191 415.713 268.969 405.738 274.252 414.539C279.534 423.34 267.21 441.533 280.708 439.186C294.206 436.839 298.313 448.575 295.38 458.552C292.445 468.527 311.811 465.006 303.008 480.266C294.206 495.523 261.342 512.543 255.473 528.974C249.605 545.405 280.12 539.537 284.815 549.514C289.509 559.489 311.809 575.922 322.96 563.598C334.108 551.273 351.127 540.713 352.887 527.214C354.646 513.716 374.6 516.066 373.424 497.873C372.251 479.68 371.665 459.143 388.682 449.753C405.699 440.364 427.998 425.107 448.538 427.454C469.076 429.801 479.053 423.933 479.053 415.718C479.053 407.502 483.748 396.353 490.789 391.071C497.831 385.791 497.831 365.836 500.764 359.382C503.7 352.926 519.543 336.495 518.369 324.173C517.195 311.851 512.624 288.375 518.431 280.16C524.237 271.944 538.907 272.53 541.842 262.555C544.777 252.578 570.598 240.255 574.119 229.693C577.64 219.13 596.418 177.464 578.225 165.142C560.035 152.819 538.909 152.819 534.212 144.016C529.515 135.212 496.655 121.129 484.919 122.89C473.182 124.652 454.404 105.873 443.841 115.848C433.278 125.825 439.734 100.005 425.651 95.8962C411.567 91.7872 391.027 81.8123 384.573 90.6135C378.117 99.4148 338.215 108.218 339.388 104.109C340.562 100 372.251 97.6555 371.663 90.6135C371.075 83.5716 355.232 73.0088 348.19 81.81C341.148 90.6135 322.957 103.524 326.476 94.1345C329.997 84.7453 354.058 77.7034 355.817 66.5525C357.576 55.404 347.016 52.4687 346.428 42.4938C345.84 32.519 344.669 2.58965 335.277 11.3909C325.893 20.1921 334.696 36.0352 295.378 42.4915Z" fill="white"/>
</mask>
<g mask="url(#mask10_335_1485)">
<path d="M159.492 181.359C159.492 187.517 154.5 192.505 148.345 192.505C142.19 192.505 137.199 187.514 137.199 181.359C137.199 175.204 142.19 170.213 148.345 170.213C154.5 170.213 159.492 175.202 159.492 181.359Z" fill="#FFFAE6"/>
</g>
<mask id="mask11_335_1485" style="mask-type:luminance" maskUnits="userSpaceOnUse" x="0" y="0" width="587" height="568">
<path d="M295.378 42.4915C275.587 45.7397 263.689 28.9933 266.622 46.5981C266.622 46.5981 248.429 42.4915 239.628 50.707C230.827 58.9226 212.046 60.0962 210.872 47.7717C209.699 35.4472 216.741 11.3885 210.872 9.62919C205.004 7.8699 206.178 -9.14924 192.094 6.69388C178.01 22.5394 159.232 25.4723 151.016 19.0184C142.8 12.5645 125.784 17.987 139.865 28.4788C153.949 38.9705 165.686 40.1441 153.949 46.0124C142.212 51.8807 123.434 56.5753 122.26 66.5525C121.087 76.5297 98.2016 64.7908 97.028 54.228C95.8543 43.6651 54.7765 46.0124 56.5358 55.4016C58.2951 64.7908 75.9023 61.2699 70.034 66.5501C64.1658 71.8327 47.1466 72.4184 52.4292 82.3956C57.7118 92.3728 84.7058 128.168 57.7118 144.599C30.7178 161.03 13.6987 142.838 9.00647 176.876C4.31186 210.912 -11.5336 212.085 14.8747 222.06C41.2831 232.037 38.3478 243.774 51.258 229.102C51.258 229.102 45.9777 249.64 57.7142 249.054C69.4507 248.469 88.8172 253.161 99.3801 239.665C109.943 226.169 128.721 217.366 130.481 236.144C132.24 254.922 151.606 274.287 168.623 273.701C185.642 273.115 204.421 277.781 205.006 291.291C205.592 304.801 213.81 326.515 228.479 324.168C243.149 321.821 252.538 334.145 247.258 348.815C241.978 363.484 231.415 403.976 240.802 409.845C250.191 415.713 268.969 405.738 274.252 414.539C279.534 423.34 267.21 441.533 280.708 439.186C294.206 436.839 298.313 448.575 295.38 458.552C292.445 468.527 311.811 465.006 303.008 480.266C294.206 495.523 261.342 512.543 255.473 528.974C249.605 545.405 280.12 539.537 284.815 549.514C289.509 559.489 311.809 575.922 322.96 563.598C334.108 551.273 351.127 540.713 352.887 527.214C354.646 513.716 374.6 516.066 373.424 497.873C372.251 479.68 371.665 459.143 388.682 449.753C405.699 440.364 427.998 425.107 448.538 427.454C469.076 429.801 479.053 423.933 479.053 415.718C479.053 407.502 483.748 396.353 490.789 391.071C497.831 385.791 497.831 365.836 500.764 359.382C503.7 352.926 519.543 336.495 518.369 324.173C517.195 311.851 512.624 288.375 518.431 280.16C524.237 271.944 538.907 272.53 541.842 262.555C544.777 252.578 570.598 240.255 574.119 229.693C577.64 219.13 596.418 177.464 578.225 165.142C560.035 152.819 538.909 152.819 534.212 144.016C529.515 135.212 496.655 121.129 484.919 122.89C473.182 124.652 454.404 105.873 443.841 115.848C433.278 125.825 439.734 100.005 425.651 95.8962C411.567 91.7872 391.027 81.8123 384.573 90.6135C378.117 99.4148 338.215 108.218 339.388 104.109C340.562 100 372.251 97.6555 371.663 90.6135C371.075 83.5716 355.232 73.0088 348.19 81.81C341.148 90.6135 322.957 103.524 326.476 94.1345C329.997 84.7453 354.058 77.7034 355.817 66.5525C357.576 55.404 347.016 52.4687 346.428 42.4938C345.84 32.519 344.669 2.58965 335.277 11.3909C325.893 20.1921 334.696 36.0352 295.378 42.4915Z" fill="white"/>
</mask>
<g mask="url(#mask11_335_1485)">
<path d="M193.406 181.359C193.406 187.517 188.415 192.505 182.259 192.505C176.104 192.505 171.113 187.514 171.113 181.359C171.113 175.204 176.104 170.213 182.259 170.213C188.415 170.213 193.406 175.202 193.406 181.359Z" fill="#FFFAE6"/>
</g>
<mask id="mask12_335_1485" style="mask-type:luminance" maskUnits="userSpaceOnUse" x="0" y="0" width="587" height="568">
<path d="M295.378 42.4915C275.587 45.7397 263.689 28.9933 266.622 46.5981C266.622 46.5981 248.429 42.4915 239.628 50.707C230.827 58.9226 212.046 60.0962 210.872 47.7717C209.699 35.4472 216.741 11.3885 210.872 9.62919C205.004 7.8699 206.178 -9.14924 192.094 6.69388C178.01 22.5394 159.232 25.4723 151.016 19.0184C142.8 12.5645 125.784 17.987 139.865 28.4788C153.949 38.9705 165.686 40.1441 153.949 46.0124C142.212 51.8807 123.434 56.5753 122.26 66.5525C121.087 76.5297 98.2016 64.7908 97.028 54.228C95.8543 43.6651 54.7765 46.0124 56.5358 55.4016C58.2951 64.7908 75.9023 61.2699 70.034 66.5501C64.1658 71.8327 47.1466 72.4184 52.4292 82.3956C57.7118 92.3728 84.7058 128.168 57.7118 144.599C30.7178 161.03 13.6987 142.838 9.00647 176.876C4.31186 210.912 -11.5336 212.085 14.8747 222.06C41.2831 232.037 38.3478 243.774 51.258 229.102C51.258 229.102 45.9777 249.64 57.7142 249.054C69.4507 248.469 88.8172 253.161 99.3801 239.665C109.943 226.169 128.721 217.366 130.481 236.144C132.24 254.922 151.606 274.287 168.623 273.701C185.642 273.115 204.421 277.781 205.006 291.291C205.592 304.801 213.81 326.515 228.479 324.168C243.149 321.821 252.538 334.145 247.258 348.815C241.978 363.484 231.415 403.976 240.802 409.845C250.191 415.713 268.969 405.738 274.252 414.539C279.534 423.34 267.21 441.533 280.708 439.186C294.206 436.839 298.313 448.575 295.38 458.552C292.445 468.527 311.811 465.006 303.008 480.266C294.206 495.523 261.342 512.543 255.473 528.974C249.605 545.405 280.12 539.537 284.815 549.514C289.509 559.489 311.809 575.922 322.96 563.598C334.108 551.273 351.127 540.713 352.887 527.214C354.646 513.716 374.6 516.066 373.424 497.873C372.251 479.68 371.665 459.143 388.682 449.753C405.699 440.364 427.998 425.107 448.538 427.454C469.076 429.801 479.053 423.933 479.053 415.718C479.053 407.502 483.748 396.353 490.789 391.071C497.831 385.791 497.831 365.836 500.764 359.382C503.7 352.926 519.543 336.495 518.369 324.173C517.195 311.851 512.624 288.375 518.431 280.16C524.237 271.944 538.907 272.53 541.842 262.555C544.777 252.578 570.598 240.255 574.119 229.693C577.64 219.13 596.418 177.464 578.225 165.142C560.035 152.819 538.909 152.819 534.212 144.016C529.515 135.212 496.655 121.129 484.919 122.89C473.182 124.652 454.404 105.873 443.841 115.848C433.278 125.825 439.734 100.005 425.651 95.8962C411.567 91.7872 391.027 81.8123 384.573 90.6135C378.117 99.4148 338.215 108.218 339.388 104.109C340.562 100 372.251 97.6555 371.663 90.6135C371.075 83.5716 355.232 73.0088 348.19 81.81C341.148 90.6135 322.957 103.524 326.476 94.1345C329.997 84.7453 354.058 77.7034 355.817 66.5525C357.576 55.404 347.016 52.4687 346.428 42.4938C345.84 32.519 344.669 2.58965 335.277 11.3909C325.893 20.1921 334.696 36.0352 295.378 42.4915Z" fill="white"/>
</mask>
<g mask="url(#mask12_335_1485)">
<path d="M344.546 370.161C350.744 370.161 355.768 365.137 355.768 358.939C355.768 352.742 350.744 347.717 344.546 347.717C338.348 347.717 333.324 352.742 333.324 358.939C333.324 365.137 338.348 370.161 344.546 370.161Z" fill="#FFFAE6"/>
</g>
<mask id="mask13_335_1485" style="mask-type:luminance" maskUnits="userSpaceOnUse" x="0" y="0" width="587" height="568">
<path d="M295.378 42.4915C275.587 45.7397 263.689 28.9933 266.622 46.5981C266.622 46.5981 248.429 42.4915 239.628 50.707C230.827 58.9226 212.046 60.0962 210.872 47.7717C209.699 35.4472 216.741 11.3885 210.872 9.62919C205.004 7.8699 206.178 -9.14924 192.094 6.69388C178.01 22.5394 159.232 25.4723 151.016 19.0184C142.8 12.5645 125.784 17.987 139.865 28.4788C153.949 38.9705 165.686 40.1441 153.949 46.0124C142.212 51.8807 123.434 56.5753 122.26 66.5525C121.087 76.5297 98.2016 64.7908 97.028 54.228C95.8543 43.6651 54.7765 46.0124 56.5358 55.4016C58.2951 64.7908 75.9023 61.2699 70.034 66.5501C64.1658 71.8327 47.1466 72.4184 52.4292 82.3956C57.7118 92.3728 84.7058 128.168 57.7118 144.599C30.7178 161.03 13.6987 142.838 9.00647 176.876C4.31186 210.912 -11.5336 212.085 14.8747 222.06C41.2831 232.037 38.3478 243.774 51.258 229.102C51.258 229.102 45.9777 249.64 57.7142 249.054C69.4507 248.469 88.8172 253.161 99.3801 239.665C109.943 226.169 128.721 217.366 130.481 236.144C132.24 254.922 151.606 274.287 168.623 273.701C185.642 273.115 204.421 277.781 205.006 291.291C205.592 304.801 213.81 326.515 228.479 324.168C243.149 321.821 252.538 334.145 247.258 348.815C241.978 363.484 231.415 403.976 240.802 409.845C250.191 415.713 268.969 405.738 274.252 414.539C279.534 423.34 267.21 441.533 280.708 439.186C294.206 436.839 298.313 448.575 295.38 458.552C292.445 468.527 311.811 465.006 303.008 480.266C294.206 495.523 261.342 512.543 255.473 528.974C249.605 545.405 280.12 539.537 284.815 549.514C289.509 559.489 311.809 575.922 322.96 563.598C334.108 551.273 351.127 540.713 352.887 527.214C354.646 513.716 374.6 516.066 373.424 497.873C372.251 479.68 371.665 459.143 388.682 449.753C405.699 440.364 427.998 425.107 448.538 427.454C469.076 429.801 479.053 423.933 479.053 415.718C479.053 407.502 483.748 396.353 490.789 391.071C497.831 385.791 497.831 365.836 500.764 359.382C503.7 352.926 519.543 336.495 518.369 324.173C517.195 311.851 512.624 288.375 518.431 280.16C524.237 271.944 538.907 272.53 541.842 262.555C544.777 252.578 570.598 240.255 574.119 229.693C577.64 219.13 596.418 177.464 578.225 165.142C560.035 152.819 538.909 152.819 534.212 144.016C529.515 135.212 496.655 121.129 484.919 122.89C473.182 124.652 454.404 105.873 443.841 115.848C433.278 125.825 439.734 100.005 425.651 95.8962C411.567 91.7872 391.027 81.8123 384.573 90.6135C378.117 99.4148 338.215 108.218 339.388 104.109C340.562 100 372.251 97.6555 371.663 90.6135C371.075 83.5716 355.232 73.0088 348.19 81.81C341.148 90.6135 322.957 103.524 326.476 94.1345C329.997 84.7453 354.058 77.7034 355.817 66.5525C357.576 55.404 347.016 52.4687 346.428 42.4938C345.84 32.519 344.669 2.58965 335.277 11.3909C325.893 20.1921 334.696 36.0352 295.378 42.4915Z" fill="white"/>
</mask>
<g mask="url(#mask13_335_1485)">
<path d="M378.691 370.161C384.889 370.161 389.913 365.137 389.913 358.939C389.913 352.742 384.889 347.717 378.691 347.717C372.493 347.717 367.469 352.742 367.469 358.939C367.469 365.137 372.493 370.161 378.691 370.161Z" fill="#FFFAE6"/>
</g>
<mask id="mask14_335_1485" style="mask-type:luminance" maskUnits="userSpaceOnUse" x="0" y="0" width="587" height="568">
<path d="M295.378 42.4915C275.587 45.7397 263.689 28.9933 266.622 46.5981C266.622 46.5981 248.429 42.4915 239.628 50.707C230.827 58.9226 212.046 60.0962 210.872 47.7717C209.699 35.4472 216.741 11.3885 210.872 9.62919C205.004 7.8699 206.178 -9.14924 192.094 6.69388C178.01 22.5394 159.232 25.4723 151.016 19.0184C142.8 12.5645 125.784 17.987 139.865 28.4788C153.949 38.9705 165.686 40.1441 153.949 46.0124C142.212 51.8807 123.434 56.5753 122.26 66.5525C121.087 76.5297 98.2016 64.7908 97.028 54.228C95.8543 43.6651 54.7765 46.0124 56.5358 55.4016C58.2951 64.7908 75.9023 61.2699 70.034 66.5501C64.1658 71.8327 47.1466 72.4184 52.4292 82.3956C57.7118 92.3728 84.7058 128.168 57.7118 144.599C30.7178 161.03 13.6987 142.838 9.00647 176.876C4.31186 210.912 -11.5336 212.085 14.8747 222.06C41.2831 232.037 38.3478 243.774 51.258 229.102C51.258 229.102 45.9777 249.64 57.7142 249.054C69.4507 248.469 88.8172 253.161 99.3801 239.665C109.943 226.169 128.721 217.366 130.481 236.144C132.24 254.922 151.606 274.287 168.623 273.701C185.642 273.115 204.421 277.781 205.006 291.291C205.592 304.801 213.81 326.515 228.479 324.168C243.149 321.821 252.538 334.145 247.258 348.815C241.978 363.484 231.415 403.976 240.802 409.845C250.191 415.713 268.969 405.738 274.252 414.539C279.534 423.34 267.21 441.533 280.708 439.186C294.206 436.839 298.313 448.575 295.38 458.552C292.445 468.527 311.811 465.006 303.008 480.266C294.206 495.523 261.342 512.543 255.473 528.974C249.605 545.405 280.12 539.537 284.815 549.514C289.509 559.489 311.809 575.922 322.96 563.598C334.108 551.273 351.127 540.713 352.887 527.214C354.646 513.716 374.6 516.066 373.424 497.873C372.251 479.68 371.665 459.143 388.682 449.753C405.699 440.364 427.998 425.107 448.538 427.454C469.076 429.801 479.053 423.933 479.053 415.718C479.053 407.502 483.748 396.353 490.789 391.071C497.831 385.791 497.831 365.836 500.764 359.382C503.7 352.926 519.543 336.495 518.369 324.173C517.195 311.851 512.624 288.375 518.431 280.16C524.237 271.944 538.907 272.53 541.842 262.555C544.777 252.578 570.598 240.255 574.119 229.693C577.64 219.13 596.418 177.464 578.225 165.142C560.035 152.819 538.909 152.819 534.212 144.016C529.515 135.212 496.655 121.129 484.919 122.89C473.182 124.652 454.404 105.873 443.841 115.848C433.278 125.825 439.734 100.005 425.651 95.8962C411.567 91.7872 391.027 81.8123 384.573 90.6135C378.117 99.4148 338.215 108.218 339.388 104.109C340.562 100 372.251 97.6555 371.663 90.6135C371.075 83.5716 355.232 73.0088 348.19 81.81C341.148 90.6135 322.957 103.524 326.476 94.1345C329.997 84.7453 354.058 77.7034 355.817 66.5525C357.576 55.404 347.016 52.4687 346.428 42.4938C345.84 32.519 344.669 2.58965 335.277 11.3909C325.893 20.1921 334.696 36.0352 295.378 42.4915Z" fill="white"/>
</mask>
<g mask="url(#mask14_335_1485)">
<path d="M412.839 370.161C419.037 370.161 424.061 365.137 424.061 358.939C424.061 352.742 419.037 347.717 412.839 347.717C406.641 347.717 401.617 352.742 401.617 358.939C401.617 365.137 406.641 370.161 412.839 370.161Z" fill="#FFFAE6"/>
</g>
<mask id="mask15_335_1485" style="mask-type:luminance" maskUnits="userSpaceOnUse" x="0" y="0" width="587" height="568">
<path d="M295.378 42.4915C275.587 45.7397 263.689 28.9933 266.622 46.5981C266.622 46.5981 248.429 42.4915 239.628 50.707C230.827 58.9226 212.046 60.0962 210.872 47.7717C209.699 35.4472 216.741 11.3885 210.872 9.62919C205.004 7.8699 206.178 -9.14924 192.094 6.69388C178.01 22.5394 159.232 25.4723 151.016 19.0184C142.8 12.5645 125.784 17.987 139.865 28.4788C153.949 38.9705 165.686 40.1441 153.949 46.0124C142.212 51.8807 123.434 56.5753 122.26 66.5525C121.087 76.5297 98.2016 64.7908 97.028 54.228C95.8543 43.6651 54.7765 46.0124 56.5358 55.4016C58.2951 64.7908 75.9023 61.2699 70.034 66.5501C64.1658 71.8327 47.1466 72.4184 52.4292 82.3956C57.7118 92.3728 84.7058 128.168 57.7118 144.599C30.7178 161.03 13.6987 142.838 9.00647 176.876C4.31186 210.912 -11.5336 212.085 14.8747 222.06C41.2831 232.037 38.3478 243.774 51.258 229.102C51.258 229.102 45.9777 249.64 57.7142 249.054C69.4507 248.469 88.8172 253.161 99.3801 239.665C109.943 226.169 128.721 217.366 130.481 236.144C132.24 254.922 151.606 274.287 168.623 273.701C185.642 273.115 204.421 277.781 205.006 291.291C205.592 304.801 213.81 326.515 228.479 324.168C243.149 321.821 252.538 334.145 247.258 348.815C241.978 363.484 231.415 403.976 240.802 409.845C250.191 415.713 268.969 405.738 274.252 414.539C279.534 423.34 267.21 441.533 280.708 439.186C294.206 436.839 298.313 448.575 295.38 458.552C292.445 468.527 311.811 465.006 303.008 480.266C294.206 495.523 261.342 512.543 255.473 528.974C249.605 545.405 280.12 539.537 284.815 549.514C289.509 559.489 311.809 575.922 322.96 563.598C334.108 551.273 351.127 540.713 352.887 527.214C354.646 513.716 374.6 516.066 373.424 497.873C372.251 479.68 371.665 459.143 388.682 449.753C405.699 440.364 427.998 425.107 448.538 427.454C469.076 429.801 479.053 423.933 479.053 415.718C479.053 407.502 483.748 396.353 490.789 391.071C497.831 385.791 497.831 365.836 500.764 359.382C503.7 352.926 519.543 336.495 518.369 324.173C517.195 311.851 512.624 288.375 518.431 280.16C524.237 271.944 538.907 272.53 541.842 262.555C544.777 252.578 570.598 240.255 574.119 229.693C577.64 219.13 596.418 177.464 578.225 165.142C560.035 152.819 538.909 152.819 534.212 144.016C529.515 135.212 496.655 121.129 484.919 122.89C473.182 124.652 454.404 105.873 443.841 115.848C433.278 125.825 439.734 100.005 425.651 95.8962C411.567 91.7872 391.027 81.8123 384.573 90.6135C378.117 99.4148 338.215 108.218 339.388 104.109C340.562 100 372.251 97.6555 371.663 90.6135C371.075 83.5716 355.232 73.0088 348.19 81.81C341.148 90.6135 322.957 103.524 326.476 94.1345C329.997 84.7453 354.058 77.7034 355.817 66.5525C357.576 55.404 347.016 52.4687 346.428 42.4938C345.84 32.519 344.669 2.58965 335.277 11.3909C325.893 20.1921 334.696 36.0352 295.378 42.4915Z" fill="white"/>
</mask>
<g mask="url(#mask15_335_1485)">
<path d="M446.988 370.161C453.185 370.161 458.21 365.137 458.21 358.939C458.21 352.742 453.185 347.717 446.988 347.717C440.79 347.717 435.766 352.742 435.766 358.939C435.766 365.137 440.79 370.161 446.988 370.161Z" fill="#FFFAE6"/>
</g>
<mask id="mask16_335_1485" style="mask-type:luminance" maskUnits="userSpaceOnUse" x="0" y="0" width="587" height="568">
<path d="M295.378 42.4915C275.587 45.7397 263.689 28.9933 266.622 46.5981C266.622 46.5981 248.429 42.4915 239.628 50.707C230.827 58.9226 212.046 60.0962 210.872 47.7717C209.699 35.4472 216.741 11.3885 210.872 9.62919C205.004 7.8699 206.178 -9.14924 192.094 6.69388C178.01 22.5394 159.232 25.4723 151.016 19.0184C142.8 12.5645 125.784 17.987 139.865 28.4788C153.949 38.9705 165.686 40.1441 153.949 46.0124C142.212 51.8807 123.434 56.5753 122.26 66.5525C121.087 76.5297 98.2016 64.7908 97.028 54.228C95.8543 43.6651 54.7765 46.0124 56.5358 55.4016C58.2951 64.7908 75.9023 61.2699 70.034 66.5501C64.1658 71.8327 47.1466 72.4184 52.4292 82.3956C57.7118 92.3728 84.7058 128.168 57.7118 144.599C30.7178 161.03 13.6987 142.838 9.00647 176.876C4.31186 210.912 -11.5336 212.085 14.8747 222.06C41.2831 232.037 38.3478 243.774 51.258 229.102C51.258 229.102 45.9777 249.64 57.7142 249.054C69.4507 248.469 88.8172 253.161 99.3801 239.665C109.943 226.169 128.721 217.366 130.481 236.144C132.24 254.922 151.606 274.287 168.623 273.701C185.642 273.115 204.421 277.781 205.006 291.291C205.592 304.801 213.81 326.515 228.479 324.168C243.149 321.821 252.538 334.145 247.258 348.815C241.978 363.484 231.415 403.976 240.802 409.845C250.191 415.713 268.969 405.738 274.252 414.539C279.534 423.34 267.21 441.533 280.708 439.186C294.206 436.839 298.313 448.575 295.38 458.552C292.445 468.527 311.811 465.006 303.008 480.266C294.206 495.523 261.342 512.543 255.473 528.974C249.605 545.405 280.12 539.537 284.815 549.514C289.509 559.489 311.809 575.922 322.96 563.598C334.108 551.273 351.127 540.713 352.887 527.214C354.646 513.716 374.6 516.066 373.424 497.873C372.251 479.68 371.665 459.143 388.682 449.753C405.699 440.364 427.998 425.107 448.538 427.454C469.076 429.801 479.053 423.933 479.053 415.718C479.053 407.502 483.748 396.353 490.789 391.071C497.831 385.791 497.831 365.836 500.764 359.382C503.7 352.926 519.543 336.495 518.369 324.173C517.195 311.851 512.624 288.375 518.431 280.16C524.237 271.944 538.907 272.53 541.842 262.555C544.777 252.578 570.598 240.255 574.119 229.693C577.64 219.13 596.418 177.464 578.225 165.142C560.035 152.819 538.909 152.819 534.212 144.016C529.515 135.212 496.655 121.129 484.919 122.89C473.182 124.652 454.404 105.873 443.841 115.848C433.278 125.825 439.734 100.005 425.651 95.8962C411.567 91.7872 391.027 81.8123 384.573 90.6135C378.117 99.4148 338.215 108.218 339.388 104.109C340.562 100 372.251 97.6555 371.663 90.6135C371.075 83.5716 355.232 73.0088 348.19 81.81C341.148 90.6135 322.957 103.524 326.476 94.1345C329.997 84.7453 354.058 77.7034 355.817 66.5525C357.576 55.404 347.016 52.4687 346.428 42.4938C345.84 32.519 344.669 2.58965 335.277 11.3909C325.893 20.1921 334.696 36.0352 295.378 42.4915Z" fill="white"/>
</mask>
<g mask="url(#mask16_335_1485)">
<path d="M492.358 358.939C492.358 365.137 487.334 370.161 481.136 370.161C474.938 370.161 469.914 365.137 469.914 358.939C469.914 352.741 474.938 347.717 481.136 347.717C487.332 347.717 492.358 352.741 492.358 358.939Z" fill="#FFFAE6"/>
</g>
</svg>
