<svg width="615" height="567" viewBox="0 0 615 567" fill="none" xmlns="http://www.w3.org/2000/svg">
<path d="M544.762 553.975L553.261 551.03L564.595 545.88L566.723 541.464L568.85 531.159V515.232L562.473 504.749L553.261 495.092L552.554 478.166L559.638 459.03H568.85H575.227L588.951 456.085L586.561 449.94L583.018 439.889L578.061 434.004L562.478 427.378L558.228 422.963H548.087L542.639 340.529H560.35C560.35 340.529 560.35 341.999 563.185 336.848C566.02 331.698 563.893 320.657 563.893 320.657L577.354 314.032L585.146 333.903L595.772 340.529H606.399L615 325.971L609.941 322.863L608.877 316.79L595.596 309.612H583.375L575.402 305.197L564.244 295.814L525.992 242.614L496.24 216.324L489.863 204.179L459.047 163.884L430.358 115.306L425.044 96.5402L421.326 91.5725L420.855 88.147L403.791 87.3399L398.834 93.8114L369.789 96.9103L340.036 93.8114L331.537 96.9103L313.826 90.285C313.826 90.285 306.034 79.2443 305.327 77.0391C304.619 74.8291 305.327 68.9436 305.327 68.9436L300.369 61.5832L283.366 54.2229L242.987 35.8218L223.593 31.4067L211.153 33.6167L198.358 48.3374C198.358 48.3374 180.647 50.5475 177.812 48.3374C174.978 46.1274 168.601 48.3374 168.601 48.3374L97.0495 19.016L80.7583 15.2157L52.4207 0L40.3791 20.3661L36.8369 26.2562V34.3517V41.7121L34.0022 59.378H22.6682H12.0416C12.0416 59.378 14.1687 57.168 7.79188 56.4329C1.41501 55.6978 1.41502 55.6979 1.41502 55.6979L0 63.7933C0 68.9437 11.3342 75.5689 11.3342 75.5689L16.296 81.243H30.4647H36.8416L42.5063 93.8162L41.7988 102.8L38.9641 109.426L42.5063 112.914V119.928L38.9641 127.827L32.5872 132.242L20.5456 137.392L16.296 141.073L17.711 150.638V154.318L4.96183 164.624L1.41968 168.304L4.25439 171.984L7.0891 175.665L7.79654 188.175L19.8381 216.142L27.63 231.598L33.2994 248.524L42.5063 257.354L58.0901 262.505L100.596 273.545C100.596 273.545 114.765 277.225 115.473 279.435C116.18 281.646 128.226 294.891 128.226 294.891L134.603 310.347L138.145 323.593H141.688C141.688 323.593 144.522 328.008 145.23 323.593C145.937 319.178 144.522 316.968 149.48 313.287C154.437 309.607 161.521 305.192 161.521 305.192L168.605 288.266L176.397 284.586L181.355 279.435V266.925V259.564L170.02 250.734L147.352 242.614L131.768 235.278L127.519 228.653L120.434 216.142L119.019 210.992L114.062 197.746L111.214 187.44C111.214 187.44 112.629 184.495 115.463 184.495C118.298 184.495 121.133 184.495 121.133 184.495L122.548 193.326L124.675 201.421L133.886 207.311L153.72 210.256C153.72 210.256 163.639 214.672 165.054 218.352C166.469 222.032 187.722 242.619 187.722 242.619L198.349 249.999L223.583 271.345L229.012 277.235L234.478 289.746L229.012 296.371L223.583 300.051V314.037L238.02 325.568L252.189 335.378L277.692 338.323H301.78H306.03L310.987 346.419L315.236 357.459L346.404 370.34C346.404 370.34 381.47 384.186 385.72 387.751C389.969 391.316 418.663 410.082 418.663 413.397C418.663 416.708 427.162 449.945 427.162 449.945V466.39V479.636L413.349 490.677L399.537 504.749L413.349 523.477L422.913 534.724L438.852 539.254L454.792 544.775L463.292 552.505H472.855H478.168L482.418 534.724L476.041 523.477L463.287 516.073L454.787 504.754C448.411 501.722 448.411 501.722 448.411 501.722L451.597 492.892L457.974 490.682H468.369L474.977 495.097L482.418 499.512L491.981 504.754H503.671L508.984 511.658L515.361 534.724V540.359V552.505V561.335L521.266 567L530.589 559.861L544.762 553.975Z" fill="#FFFAE6"/>
</svg>
