<svg width="407" height="496" viewBox="0 0 407 496" fill="none" xmlns="http://www.w3.org/2000/svg">
<path d="M212.188 5.00024C214.972 7.06437 225.115 14.2172 236.172 21.7133C247.105 29.1254 256.289 37.1087 265.373 45.1416C274.17 52.9214 276.23 61.3081 277.283 68.5102C278.288 75.3886 274.735 79.7854 273.332 86.1205C271.993 92.1659 271.739 98.6879 272.008 104.98C272.279 111.29 277.386 119.563 283.36 128.292C288.852 136.319 296.789 144.495 303.456 153.255C313.429 166.359 313.8 174.769 311.12 182.258C304.268 201.404 279.51 198.19 271.181 198.46C262.472 198.742 251.809 196.656 238.951 195.757C223.869 194.702 217.649 197.079 204.354 199.738C195.603 201.489 190.19 204.688 184.151 206.861C177.165 209.374 170.891 214.419 163.457 225.872C159.227 232.389 161.728 242.8 162.166 251.259C162.506 257.818 168.174 266.063 173.481 274.682C179.202 283.973 187.151 293.432 196.634 303.997C204.75 313.041 211.747 321.072 218.412 329.533C225.222 338.177 231.624 348.533 236.058 357.433C239.93 365.204 241.605 372.51 242.264 381.212C242.991 390.807 229.861 407.613 223.078 416.939C218.505 420.809 213.304 426.976 202.615 442.295C198.832 447.789 194.052 454.895 187.314 460.687" stroke="#FE5801" stroke-width="10" stroke-linecap="round" stroke-dasharray="20 20"/>
<path d="M147.798 493.844C147.842 493.221 148.073 492.403 148.536 491.372C149.461 489.311 151.259 486.515 154.059 482.929C159.653 475.766 169.17 465.548 183.457 451.908C183.459 451.907 183.461 451.905 183.463 451.903C183.484 451.887 183.515 451.863 183.556 451.831C183.637 451.767 183.758 451.671 183.915 451.548C184.229 451.302 184.688 450.943 185.267 450.495C186.424 449.598 188.059 448.341 189.97 446.905C193.795 444.031 198.717 440.443 203.129 437.571L203.431 437.374L203.364 437.034C202.924 434.809 202.051 429.968 201.889 425.891L204.093 423.15C204.127 423.262 204.164 423.384 204.205 423.513C204.449 424.275 204.803 425.323 205.244 426.461C206.049 428.542 207.17 430.998 208.465 432.541L206.722 434.227L207.291 435.006C208.982 434.034 210.452 433.3 211.579 432.906C212.144 432.709 212.594 432.607 212.928 432.592C213.268 432.577 213.408 432.653 213.463 432.711C213.515 432.766 213.579 432.893 213.562 433.189C213.544 433.484 213.448 433.88 213.262 434.378C212.889 435.371 212.2 436.66 211.275 438.153L212.03 438.752L213.275 437.577C214.757 438.941 217.16 440.174 219.204 441.074C220.321 441.566 221.351 441.968 222.102 442.246C222.229 442.293 222.348 442.336 222.459 442.376L219.617 444.45C215.658 444.11 211.016 443.065 208.739 442.509L208.403 442.427L208.194 442.72C205.12 447.001 201.292 451.773 198.229 455.48C196.698 457.332 195.36 458.916 194.405 460.037C193.927 460.598 193.545 461.042 193.282 461.347C193.151 461.499 193.049 461.616 192.981 461.695C192.947 461.735 192.921 461.765 192.903 461.785C192.897 461.791 192.893 461.797 192.889 461.801C191.744 462.893 190.631 463.946 189.533 464.98L189.102 465.386L189.542 465.733C194.565 469.687 201.911 473.253 207.973 475.823C211.009 477.111 213.733 478.153 215.698 478.874C216.663 479.228 217.446 479.505 217.993 479.695L207.128 487.627C194.055 486.55 178.487 482.968 171.659 481.281L171.41 481.219L171.204 481.392C164.093 487.343 158.674 491.25 154.803 493.411C152.865 494.494 151.345 495.12 150.214 495.359C149.071 495.6 148.447 495.423 148.125 495.086C147.894 494.844 147.754 494.46 147.798 493.844Z" fill="#361E1C" stroke="#361E1C"/>
<path d="M163.811 423.421C163.825 423.469 163.841 423.518 163.856 423.568C164.055 424.236 164.348 425.198 164.726 426.38C165.483 428.744 166.581 431.99 167.945 435.514C170.589 442.345 174.262 450.305 178.429 454.891L160.202 469.916C160.194 469.88 160.186 469.842 160.178 469.803C160.058 469.231 159.885 468.394 159.676 467.335C159.259 465.218 158.695 462.213 158.113 458.667C156.957 451.623 155.729 442.456 155.418 433.864L163.811 423.421Z" fill="#361E1C" stroke="#361E1C"/>
</svg>
