<svg width="100" height="126" viewBox="0 0 100 126" fill="none" xmlns="http://www.w3.org/2000/svg">
<path d="M99.0572 63.2051C99.0055 68.2198 83.7199 72.1232 46.8817 71.7318C46.8817 71.7318 34.0175 70.0094 24.3689 67.4945C23.1897 69.8951 20.532 75.1162 17.914 78.9415L13.5903 79.6558C13.5903 79.6558 17.1321 71.0576 17.1825 66.1697L19.9012 66.1761C16.3654 64.9792 13.9339 63.6626 13.948 62.3009C13.9612 61.0255 16.1154 59.8351 19.3126 58.7675L17.2593 58.7286C17.3097 53.8407 13.946 45.1691 13.946 45.1691L18.2541 45.9751C20.7273 49.7553 23.2056 54.8501 24.3762 57.3532C34.0855 55.0301 47.0691 53.5715 47.0691 53.5715C48.5552 53.5875 49.9931 53.6115 51.4091 53.6395C49.9078 38.0804 41.2632 15.7945 41.2632 15.7945L54.7402 18.3161C62.792 30.6233 70.8796 47.4212 74.3353 54.8591C91.5818 56.5476 99.0937 59.6807 99.0572 63.2051Z" fill="#361E1C"/>
<path d="M74.802 74.5172C74.802 74.5172 64.7858 95.9206 53.8257 111.935L40.3091 114.168C40.3091 114.168 51.3812 87.2888 51.5386 72.0082L74.802 74.5172Z" fill="#361E1C"/>
</svg>
