<svg width="689" height="329" viewBox="0 0 689 329" fill="none" xmlns="http://www.w3.org/2000/svg">
<path d="M5 5.00024C5.16837 7.33924 5.41945 89.6543 5.05759 98.5499C4.69977 107.346 6.98735 115.718 9.45127 124.074C11.8376 132.168 22.0676 137.735 31.5916 142.211C40.6877 146.486 50.8301 147.434 61.6098 150.38C71.8965 153.192 81.7668 156.732 90.7573 160.366C99.7755 164.011 106.694 170.81 113.392 178.233C119.552 185.059 123.409 193.008 129.437 200.743C138.455 212.315 150.461 217.177 164.259 220.226C199.531 228.02 220.334 215.692 229.322 212.3C238.721 208.753 246.646 203.051 258.584 197.079C272.588 190.075 282.505 188.758 300.137 184.59C311.742 181.848 322.038 181.334 331.468 179.981C342.376 178.415 356.28 178.569 380.82 181.812C394.782 183.658 407.541 190.545 419.55 195.463C428.862 199.276 435.161 206.299 442.384 213.377C450.171 221.007 455.907 229.679 461.689 239.621C466.639 248.132 471.254 255.6 476.843 263.168C482.553 270.899 491.205 279.414 499.742 286.278C507.197 292.272 516.231 297.07 528.37 302.218C541.757 307.894 580.058 311.709 600.792 314.04C611.21 314.26 625.659 315.497 659.253 319.519C671.249 320.983 686.647 322.924 702.13 323.298" stroke="#FE5801" stroke-width="10" stroke-linecap="round" stroke-dasharray="20 20"/>
</svg>
