<svg width="692" height="166" viewBox="0 0 692 166" fill="none" xmlns="http://www.w3.org/2000/svg">
<path d="M5.15625 -83.5924C5.32462 -81.2534 5.39982 -72.9384 5.03795 -64.0428C4.68014 -55.2468 6.96769 -46.8751 9.43161 -38.5184C11.8179 -30.4249 22.048 -24.8579 31.572 -20.3818C40.6681 -16.1069 50.8105 -15.1591 61.5902 -12.2125C71.8769 -9.40057 81.7472 -5.86077 90.7377 -2.22708C99.7559 1.41779 106.674 8.21733 113.372 15.6405C119.532 22.4666 123.389 30.4151 129.417 38.1505C138.435 49.722 150.441 54.5839 164.239 57.6328C199.511 65.4269 220.315 53.0987 229.303 49.707C238.701 46.1603 246.627 40.4581 258.565 34.4865C272.568 27.4817 282.485 26.1648 300.117 21.9976C311.722 19.2548 322.018 18.7414 331.448 17.3882C342.356 15.8228 356.26 15.976 380.801 19.2198C394.763 21.0653 407.521 27.9525 419.53 32.8699C428.842 36.6832 435.141 43.7058 442.364 50.7842C450.151 58.4145 455.887 67.0858 461.67 77.0287C466.619 85.5391 471.234 93.0069 476.823 100.575C482.533 108.306 491.186 116.822 499.723 123.686C507.178 129.679 516.212 134.478 528.351 139.625C541.738 145.301 580.039 149.117 600.773 151.447C611.191 151.667 625.64 152.904 659.235 156.926C671.23 158.39 686.628 160.331 702.111 160.705" stroke="#FE5801" stroke-width="10" stroke-linecap="round" stroke-dasharray="20 20"/>
</svg>
