<svg width="183" height="103" viewBox="0 0 183 103" fill="none" xmlns="http://www.w3.org/2000/svg">
<path d="M53.46 81.47C53.46 82.49 50.43 83 44.37 83C38.31 83 35.28 82.49 35.28 81.47V60.77H22.68V81.47C22.68 82.49 19.65 83 13.59 83C7.53 83 4.5 82.49 4.5 81.47V21.8C4.5 20.54 7.53 19.91 13.59 19.91C19.65 19.91 22.68 20.54 22.68 21.8V42.95H35.28V21.98C35.28 21.14 36.78 20.54 39.78 20.18C41.34 20.06 42.87 20 44.37 20L48.96 20.18C51.96 20.54 53.46 21.14 53.46 21.98V81.47ZM123.086 80.7V50.7C123.086 49.8667 123.286 49.2167 123.686 48.75C124.119 48.25 124.669 48 125.336 48H133.686C138.986 48 143.003 49.3333 145.736 52C148.503 54.6667 149.886 58.8667 149.886 64.6C149.886 76.8667 144.653 83 134.186 83H125.636C123.936 83 123.086 82.2333 123.086 80.7ZM132.686 57.5V72.45C132.686 73.15 132.736 73.6 132.836 73.8C132.936 73.9667 133.236 74.05 133.736 74.05C135.569 74.05 136.953 73.3667 137.886 72C138.853 70.6333 139.336 68.3667 139.336 65.2C139.336 62 138.836 59.9167 137.836 58.95C136.869 57.9833 135.319 57.5 133.186 57.5H132.686ZM163.896 82.3C163.896 82.8 162.33 83.05 159.196 83.05L156.396 82.9C154.73 82.7667 153.896 82.5333 153.896 82.2V48.65C153.896 48.0833 155.563 47.8 158.896 47.8C162.23 47.8 163.896 48.0833 163.896 48.65V61.45L169.996 48.65C170.23 48.1833 171.563 47.95 173.996 47.95C178.43 47.95 180.763 48.3333 180.996 49.1C180.996 49.1667 180.98 49.2333 180.946 49.3L172.246 65L182.346 78.95C182.346 79.0167 182.03 79.3 181.396 79.8C179.863 81.1333 178.063 82.1833 175.996 82.95C175.363 83.1833 174.73 83.3 174.096 83.3L172.896 83.2C171.83 82.9333 170.996 82.25 170.396 81.15L164.696 70.25H163.896V82.3Z" fill="#FE5801"/>
<path d="M85.0999 15.32C85.0999 15.68 82.9999 15.86 78.7999 15.86C74.6599 15.86 72.5899 15.71 72.5899 15.41V2.81C72.5899 2.27 74.6599 2 78.7999 2C82.9999 2 85.0999 2.15 85.0999 2.45V15.32ZM105.8 15.32C105.8 15.68 103.7 15.86 99.4999 15.86C95.3599 15.86 93.2899 15.71 93.2899 15.41V2.81C93.2899 2.27 95.3599 2 99.4999 2C103.7 2 105.8 2.15 105.8 2.45V15.32ZM89.1499 83.9C80.7499 83.9 73.8799 81.14 68.5399 75.62C63.2599 70.1 60.6199 62.06 60.6199 51.5C60.6199 40.88 63.2899 32.84 68.6299 27.38C74.0299 21.92 80.9599 19.19 89.4199 19.19C97.9399 19.19 104.81 21.89 110.03 27.29C115.25 32.63 117.86 40.76 117.86 51.68C117.86 62.54 115.19 70.64 109.85 75.98C104.51 81.26 97.6099 83.9 89.1499 83.9ZM89.2399 36.47C86.3599 36.47 83.9299 37.79 81.9499 40.43C80.0299 43.07 79.0699 46.79 79.0699 51.59C79.0699 56.33 79.9999 59.99 81.8599 62.57C83.7199 65.09 86.1499 66.35 89.1499 66.35C92.2099 66.35 94.6699 65.06 96.5299 62.48C98.4499 59.9 99.4099 56.21 99.4099 51.41C99.4099 46.61 98.4199 42.92 96.4399 40.34C94.5199 37.76 92.1199 36.47 89.2399 36.47Z" fill="#361E1C"/>
<path d="M158.455 34.1745C158.455 34.1745 156.295 37.9226 153.805 40.8108L150.437 41.5037C150.437 41.5037 152.771 36.8333 152.551 34.3267L158.455 34.1745Z" fill="#FE5801"/>
<path d="M169.641 30.5917C169.825 31.8943 163.837 33.2765 149.005 34.0646C149.005 34.0646 143.761 33.9282 139.777 33.5086C139.401 34.1601 138.546 35.5792 137.65 36.6352L135.477 36.2638C135.477 36.2638 136.782 34.2945 136.602 33.0248L137.926 33.2744C136.455 33.0491 135.423 32.7662 135.373 32.4125C135.326 32.0811 136.144 31.7202 137.386 31.3659L136.558 31.4054C136.378 30.1357 134.67 27.9665 134.67 27.9665L136.436 28.0717C137.585 28.993 138.791 30.2553 139.364 30.8766C143.174 30.0392 148.336 29.3472 148.336 29.3472C148.935 29.3154 149.514 29.2869 150.085 29.26C148.843 25.2584 144.453 19.6836 144.453 19.6836L149.977 20.0126C153.72 23.012 157.661 27.176 159.356 29.0228C166.361 29.0445 169.511 29.6762 169.641 30.5917Z" fill="#FE5801"/>
</svg>
