<svg width="735" height="467" viewBox="0 0 735 467" fill="none" xmlns="http://www.w3.org/2000/svg">
<path d="M491.386 302.665C489.164 299.776 489.164 296.245 489.482 292.074C489.8 287.903 489.482 285.654 485.99 282.767C482.497 279.88 481.227 275.384 480.275 272.816C479.323 270.248 477.1 259.979 479.005 256.768C480.909 253.559 480.593 248.101 480.593 235.055C480.593 222.008 485.038 201.241 489.166 192.255C493.293 183.27 494.881 176.207 493.611 174.925C492.341 173.641 489.8 176.209 488.53 176.85C487.26 177.493 484.719 173.96 483.767 172.679C482.815 171.395 475.194 172.679 472.654 172.679C470.113 172.679 454.237 164.655 452.332 164.012C450.428 163.371 447.888 161.766 446.618 156.951C445.347 152.137 442.807 148.285 440.267 145.717C437.726 143.149 440.267 137.051 440.267 133.842C440.267 130.633 437.726 131.595 432.963 128.387C428.201 125.178 429.153 120.683 426.297 117.474C423.438 114.265 419.945 114.906 418.675 107.845C417.405 100.784 410.42 95.0074 400.894 81.5265C391.369 68.0457 388.51 76.3905 382.796 75.7497C377.081 75.1089 377.081 64.1961 365.649 77.6745C354.219 91.1553 354.219 95.0049 351.361 95.9697C348.504 96.9321 342.787 91.4769 339.931 89.2305C337.072 86.9841 335.486 86.0217 331.358 85.0593C327.229 84.0969 321.832 78.6393 319.928 72.2217C318.024 65.8017 313.577 55.5321 312.307 53.6049C311.037 51.6801 306.274 48.7905 300.877 45.5817C295.481 42.3729 278.016 24.0777 278.016 24.0777H277.41V242.727C282.313 248.382 288.049 254.041 292.304 258.697C299.925 267.042 292.304 272.497 297.067 277.314C301.829 282.131 305.64 294.004 306.274 296.893C306.908 299.783 299.289 308.447 299.289 308.447C299.289 308.447 305.322 310.693 305.004 313.261C304.685 315.829 295.796 315.829 295.796 315.829C295.796 315.829 300.559 328.345 306.592 339.26C312.625 350.173 329.454 354.988 333.898 356.591C338.343 358.196 345.964 370.712 346.916 373.28C347.868 375.848 376.763 383.55 379.619 380.663C382.477 377.773 384.7 381.304 384.7 381.304C392.637 390.292 416.451 404.735 422.168 406.019C427.882 407.303 425.342 413.723 434.552 414.042C443.759 414.364 457.413 418.856 457.413 418.856C457.413 418.856 462.176 423.671 465.987 424.314C469.797 424.955 477.734 432.337 481.863 432.98C485.99 433.621 490.437 433.621 496.47 435.548C496.603 435.592 496.745 435.637 496.88 435.68V312.69C494.245 308.154 492.749 304.439 491.386 302.665Z" fill="#FFFAE6"/>
<path d="M236.422 24.072V34.9849H169.11L85.285 5.77684V0L30.0364 3.85203C28.1322 7.06083 32.8949 9.95041 33.5289 12.1968C34.1652 14.4432 38.6097 18.6168 40.1957 19.2576C41.7841 19.9008 41.1478 28.5649 41.466 30.8113C41.7841 33.0577 48.1329 41.4024 49.0873 43.3296C50.0394 45.2544 52.5798 45.8977 54.4839 49.7497C56.3881 53.6017 54.8021 57.7729 57.6583 59.3785C60.5169 60.9841 60.5169 65.4769 60.8326 72.2161C61.1508 78.9553 65.9135 80.5609 79.8836 86.6593C93.8536 92.7577 98.9345 106.558 100.205 113.619C101.475 120.679 96.3941 121.642 93.2197 125.815C90.0453 129.987 80.8356 125.815 78.6133 126.137C76.391 126.459 86.8686 133.519 89.0909 135.123C91.3132 136.728 90.995 140.259 92.5834 142.505C94.1718 144.751 101.475 146.998 104.013 147.319C106.551 147.641 111.316 155.023 113.538 154.702C115.761 154.38 112.586 151.815 117.349 151.493C122.112 151.171 136.718 163.047 143.067 169.145C149.418 175.243 147.83 191.292 146.559 194.179C145.289 197.067 141.479 202.203 145.289 202.846C147.875 203.28 149.584 206.52 152.101 208.759L156.403 210.869C161.8 211.51 187.202 235.263 189.742 237.509C192.283 239.755 193.235 252.274 195.775 253.877C198.315 255.483 207.523 248.1 209.745 244.889C211.967 241.68 207.523 236.223 205.301 235.051C203.078 233.88 202.76 230.446 202.76 227.237C202.76 224.028 198.949 224.028 196.409 222.101C193.869 220.176 192.598 216.324 190.376 214.719C188.154 213.113 189.74 219.855 188.788 220.817C187.836 221.779 181.166 217.287 178.628 211.829C176.088 206.374 179.262 198.991 175.136 192.893C171.007 186.795 167.199 181.659 165.928 177.166C164.658 172.673 163.388 165.931 162.118 163.685C160.848 161.439 162.118 157.908 160.214 154.697C158.31 151.488 154.817 150.526 152.277 149.883C149.736 149.239 149.736 146.031 149.102 144.427C148.468 142.824 146.88 143.465 144.34 141.219C141.799 138.972 143.387 134.799 138.307 131.268C133.226 127.738 130.051 119.393 130.051 116.825C130.051 114.257 127.511 110.405 125.607 109.764C123.703 109.123 123.066 105.271 122.748 103.025C122.43 100.779 118.937 99.4945 115.445 97.8889C111.952 96.2833 108.778 86.9761 104.967 82.4833C101.157 77.9905 88.7751 70.6081 87.8207 66.1153C86.8686 61.6225 86.8686 45.2521 83.3761 42.6841C79.8836 40.1161 81.7877 29.8465 82.7398 25.9944C83.6919 22.1424 96.3941 29.2033 97.9801 31.1305C99.5684 33.0553 102.425 29.8464 104.331 29.2032C106.235 28.5624 109.412 32.0929 110.046 34.9801C110.682 37.8697 120.205 37.2264 123.064 37.548C125.922 37.8696 124.968 41.0785 123.698 43.6465C122.428 46.2145 123.064 51.6697 125.92 54.5593C128.776 57.4489 131.635 64.8289 131.635 67.0753C131.635 69.3217 131.635 74.7793 137.032 77.3449C142.431 79.9129 144.653 88.2577 144.653 90.1825C144.653 92.1073 141.479 90.8257 139.89 89.8609C138.302 88.8985 137.032 95.3161 137.032 97.5649C137.032 99.8113 139.254 101.739 140.524 102.379C141.794 103.02 143.698 102.379 144.017 99.8113C144.335 97.2433 146.239 97.2433 147.509 97.2433C148.779 97.2433 154.812 107.194 158.623 110.403C162.434 113.611 165.29 119.391 168.467 122.278C171.643 125.165 178.944 123.883 181.803 125.808C184.661 127.733 181.166 137.043 183.707 139.93C186.247 142.819 192.914 144.423 195.773 145.385C198.631 146.347 198.313 153.73 200.217 155.014C202.121 156.298 207.52 154.371 212.283 158.866C217.046 163.359 211.331 169.135 208.791 174.271C206.25 179.407 214.824 183.9 216.412 185.825C218 187.75 221.175 186.466 221.493 185.503C221.811 184.541 224.033 186.466 226.256 189.996C228.478 193.527 240.544 197.057 241.496 198.019C242.448 198.982 232.922 198.982 236.099 199.625C239.274 200.268 242.766 208.932 245.307 210.216C247.847 211.5 252.928 213.106 252.928 213.106C252.928 213.106 251.658 216.315 253.88 217.599C256.102 218.883 268.486 229.795 268.486 229.795C270.17 233.765 273.527 238.236 277.406 242.712V24.0624H236.422V24.072Z" fill="#FFFAE6"/>
<path d="M727.298 285.012C726.027 284.05 725.393 288.864 724.757 290.467C724.121 292.073 704.436 286.615 700.625 285.974C696.815 285.331 685.067 291.43 680.94 293.035C676.812 294.641 658.079 297.85 653 300.739C647.919 303.629 650.142 323.527 649.508 325.774C648.872 328.02 645.697 331.229 644.745 333.156C643.793 335.081 642.205 344.069 641.887 346.315C641.568 348.562 627.916 354.982 626.328 356.907C624.74 358.831 628.232 360.115 629.187 361.399C630.139 362.683 627.283 366.214 624.106 367.819C620.932 369.425 619.977 367.176 616.169 363.967C612.358 360.759 609.184 360.437 606.009 361.078C602.835 361.719 593.31 365.892 591.403 367.817C589.499 369.742 582.83 368.139 580.289 367.817C577.749 367.495 574.893 368.779 572.986 371.347C571.082 373.915 560.286 375.519 555.205 375.519C550.124 375.519 547.902 366.211 543.139 362.681C538.377 359.151 531.392 361.075 526.629 360.435C521.866 359.794 519.326 352.411 518.056 349.2C516.785 345.991 512.975 343.745 512.659 338.931C512.341 334.116 510.755 330.264 503.452 321.919C500.631 318.696 498.532 315.531 496.875 312.679V435.67C502.83 437.58 509.955 440.023 516.785 439.711C523.77 439.39 538.377 429.761 539.647 427.836C540.917 425.911 543.458 426.552 545.362 426.552C547.266 426.552 545.362 424.627 544.725 422.7C544.092 420.775 546.948 421.738 548.218 423.341C549.488 424.947 550.122 423.019 551.711 422.057C553.299 421.095 552.981 426.871 555.521 426.228C558.062 425.587 560.284 423.66 562.506 425.587C564.728 427.512 569.173 428.155 569.173 428.155C569.173 428.155 606.639 467.633 608.863 466.992C611.086 466.349 612.674 454.155 612.038 452.227C611.404 450.303 609.815 448.697 610.133 447.735C610.452 446.772 620.293 427.193 620.293 427.193C620.293 427.193 647.917 427.834 649.821 427.193C651.725 426.552 651.725 421.416 649.503 419.811C647.281 418.205 645.692 417.564 644.74 414.034C643.788 410.503 636.803 404.727 634.263 403.443C631.722 402.159 628.23 401.196 628.23 401.196V397.987H636.803V383.89C636.803 383.89 677.761 383.544 679.35 383.866C680.938 384.187 680.62 381.298 680.62 380.976C680.62 380.655 684.431 380.976 687.287 380.976C690.145 380.976 692.368 373.915 693.002 371.669C693.638 369.423 698.083 365.571 700.623 364.608C703.163 363.646 705.067 361.078 705.704 359.472C706.338 357.867 705.704 365.571 706.022 366.855C706.34 368.139 708.881 370.707 711.737 371.991C714.595 373.275 713.641 363.324 713.641 360.115C713.641 356.907 720.626 346.635 720.308 345.351C719.99 344.067 716.497 346.956 715.545 345.351C714.593 343.745 719.99 341.179 719.356 338.29C718.719 335.4 714.593 337.649 713.641 336.684C712.689 335.722 716.499 333.475 718.085 331.548C719.674 329.623 717.767 324.166 723.166 316.464C728.565 308.763 733.962 301.38 734.914 296.244C735.871 291.111 728.568 285.975 727.298 285.012Z" fill="#FFFAE6"/>
<path d="M1.46136 89.5498C-1.50407 89.1226 0.509293 97.2538 3.3655 97.8946C6.22409 98.5354 3.68365 89.869 1.46136 89.5498Z" fill="#FFFAE6"/>
<path d="M73.2178 112.656C70.0245 113.193 72.5815 122.606 74.488 121.963C76.3945 121.322 75.1243 112.334 73.2178 112.656Z" fill="#FFFAE6"/>
<path d="M121.482 95.9673C124.656 93.7209 114.497 81.2024 112.908 81.524C109.734 82.1672 118.305 98.2137 121.482 95.9673Z" fill="#FFFAE6"/>
<path d="M152.105 208.76C152.105 208.76 152.915 215.363 155.456 215.363C157.996 215.363 156.408 210.87 156.408 210.87C154.672 210.664 153.3 209.824 152.105 208.76Z" fill="#FFFAE6"/>
<path d="M156.408 210.873L152.105 208.763C153.3 209.824 154.672 210.664 156.408 210.873Z" fill="#FFFAE6"/>
<path d="M274.568 282.38C272.592 283.976 273.34 291.068 276.042 290.324C278.742 289.578 277.023 280.393 274.568 282.38Z" fill="#FFFAE6"/>
</svg>
