<svg width="33" height="33" viewBox="0 0 33 33" fill="none" xmlns="http://www.w3.org/2000/svg">
<path d="M14 30.0002C14.2534 30.3042 14.6178 30.5567 15.0566 30.7322C15.4955 30.9078 15.9933 31.0002 16.5 31.0002C17.0067 31.0002 17.5045 30.9078 17.9434 30.7322C18.3822 30.5567 18.7466 30.3042 19 30.0002" stroke="#361E1C" stroke-width="4" stroke-linecap="round" stroke-linejoin="round"/>
<path d="M31 11.0002C31 7.55018 29.8 4.55018 28 2.00018" stroke="#361E1C" stroke-width="4" stroke-linecap="round" stroke-linejoin="round"/>
<path d="M3.39191 21.545C3.19595 21.755 3.06664 22.0161 3.01969 22.2967C2.97274 22.5772 3.01018 22.8651 3.12747 23.1252C3.24475 23.3853 3.43682 23.6065 3.6803 23.7618C3.92379 23.9172 4.2082 24 4.49894 24.0002H28.4994C28.7901 24.0003 29.0746 23.9178 29.3182 23.7627C29.5619 23.6077 29.7542 23.3867 29.8718 23.1268C29.9894 22.8669 30.0272 22.5791 29.9806 22.2985C29.934 22.018 29.8051 21.7567 29.6095 21.5464C27.6144 19.5356 25.4994 17.3987 25.4994 10.8002C25.4994 8.46628 24.5511 6.22796 22.8633 4.57764C21.1754 2.92732 18.8862 2.00018 16.4992 2.00018C14.1122 2.00018 11.823 2.92732 10.1351 4.57764C8.44723 6.22796 7.499 8.46628 7.499 10.8002C7.499 17.3987 5.38245 19.5357 3.39191 21.545Z" stroke="#361E1C" stroke-width="4" stroke-linecap="round" stroke-linejoin="round"/>
<path d="M5 2.00018C3.2 4.55018 2 7.55018 2 11.0002" stroke="#361E1C" stroke-width="4" stroke-linecap="round" stroke-linejoin="round"/>
</svg>
