<svg width="729" height="233" viewBox="0 0 729 233" fill="none" xmlns="http://www.w3.org/2000/svg">
<path d="M4 229.003C56 162.337 117.9 37.5037 241.5 71.5037C396 114.004 370 175.004 523 106.004C676 37.0037 481.5 -43.9963 465.5 39.5037C455.667 79.337 520.4 139.703 670 116.503" stroke="#FE5801" stroke-width="8" stroke-linecap="round" stroke-dasharray="18 18"/>
<path d="M726.355 110.026C725.963 110.513 725.307 111.053 724.339 111.636C722.404 112.802 719.333 114.075 714.988 115.425C706.309 118.121 692.665 121.091 673.152 124.154C673.149 124.154 673.147 124.154 673.144 124.155C673.118 124.156 673.078 124.158 673.026 124.161C672.923 124.168 672.769 124.177 672.57 124.189C672.172 124.212 671.59 124.245 670.859 124.284C669.397 124.362 667.337 124.461 664.948 124.552C660.168 124.733 654.078 124.875 648.816 124.72L648.456 124.71L648.317 125.027C647.41 127.106 645.368 131.582 643.177 135.023L639.804 136.019C639.839 135.907 639.879 135.787 639.918 135.657C640.153 134.892 640.458 133.829 640.745 132.643C641.27 130.474 641.749 127.817 641.565 125.811L643.958 125.42L643.934 124.455C641.991 124.29 640.365 124.055 639.215 123.736C638.638 123.576 638.209 123.403 637.926 123.225C637.638 123.044 637.567 122.902 637.555 122.822C637.543 122.748 637.563 122.606 637.747 122.373C637.929 122.141 638.233 121.871 638.671 121.568C639.542 120.964 640.844 120.298 642.455 119.598L642.176 118.676L640.483 118.932C640.043 116.966 638.771 114.583 637.605 112.679C636.968 111.638 636.351 110.721 635.893 110.063C635.815 109.952 635.741 109.849 635.674 109.754L639.191 109.669C642.249 112.205 645.468 115.711 647.021 117.464L647.251 117.724L647.59 117.603C652.556 115.837 658.421 114.098 663.051 112.799C665.364 112.15 667.367 111.611 668.791 111.235C669.503 111.047 670.07 110.899 670.459 110.799C670.654 110.748 670.804 110.71 670.906 110.684C670.956 110.671 670.995 110.661 671.02 110.655C671.029 110.653 671.036 110.651 671.042 110.649C672.605 110.404 674.119 110.174 675.611 109.951L676.197 109.863L676.033 109.327C674.159 103.215 670.156 96.0977 666.642 90.5303C664.881 87.7417 663.237 85.3321 662.033 83.6199C661.442 82.7791 660.957 82.1054 660.616 81.6377L674.064 81.3129C684.191 89.6503 694.94 101.468 699.589 106.746L699.758 106.939L700.025 106.914C709.261 106.078 715.94 105.958 720.352 106.388C722.562 106.604 724.168 106.955 725.233 107.404C726.31 107.858 726.722 108.359 726.794 108.819C726.846 109.149 726.742 109.545 726.355 110.026Z" fill="#361E1C" stroke="#361E1C"/>
<path d="M673.056 158.758C673.072 158.712 673.087 158.663 673.104 158.612C673.321 157.951 673.628 156.993 673.991 155.806C674.717 153.432 675.665 150.14 676.554 146.466C678.275 139.347 679.794 130.713 678.985 124.57L702.526 122.615C702.512 122.65 702.496 122.685 702.481 122.722C702.254 123.26 701.918 124.046 701.486 125.035C700.622 127.013 699.372 129.803 697.829 133.048C694.764 139.495 690.547 147.726 685.906 154.963L673.056 158.758Z" fill="#361E1C" stroke="#361E1C"/>
</svg>
