<svg width="28" height="28" viewBox="0 0 28 28" fill="none" xmlns="http://www.w3.org/2000/svg">
<path d="M13.9987 25.6667C20.442 25.6667 25.6654 20.4433 25.6654 14C25.6654 7.55669 20.442 2.33334 13.9987 2.33334C7.55538 2.33334 2.33203 7.55669 2.33203 14C2.33203 20.4433 7.55538 25.6667 13.9987 25.6667Z" fill="#FFFAE6"/>
<path d="M9.33203 14L13.9987 18.6667L18.6654 14" fill="#FFFAE6"/>
<path d="M9.33203 14L13.9987 18.6667M13.9987 18.6667L18.6654 14M13.9987 18.6667V9.33334M25.6654 14C25.6654 20.4433 20.442 25.6667 13.9987 25.6667C7.55538 25.6667 2.33203 20.4433 2.33203 14C2.33203 7.55669 7.55538 2.33334 13.9987 2.33334C20.442 2.33334 25.6654 7.55669 25.6654 14Z" stroke="#FE5801" stroke-width="2" stroke-linecap="round" stroke-linejoin="round"/>
</svg>
