<svg width="473" height="700" viewBox="0 0 473 700" fill="none" xmlns="http://www.w3.org/2000/svg">
<path d="M417.75 5.00073C420.224 9.18743 429.535 23.8763 439.934 39.4263C450.216 54.8024 457.406 70.4137 464.404 86.0643C471.183 101.222 467.36 114.841 463.004 126.274C458.844 137.194 449.894 142.636 442.572 151.839C435.584 160.621 429.829 170.532 425.049 180.282C420.254 190.061 421.095 204.622 422.857 220.201C424.477 234.527 429.639 249.976 432.415 265.856C436.568 289.612 430.195 302.648 420.006 313.153C393.959 340.01 359.493 326.007 346.785 323.369C333.498 320.61 319.232 313.502 300.698 307.411C278.958 300.267 267.675 301.632 245.553 300.84C230.992 300.318 220.242 303.241 209.399 304.361C196.856 305.657 183.293 311.096 162.712 325.94C151.002 334.385 146.173 351.271 139.86 364.407C134.965 374.592 136.669 389.317 137.524 404.483C138.444 420.831 142.566 438.253 148.076 457.934C152.793 474.78 156.664 489.663 159.684 505.084C162.771 520.839 163.835 539.071 163.149 554.347C162.55 567.687 159.042 579.506 152.86 593.095C146.043 608.08 112.513 629.048 94.6611 640.866C84.6175 645.127 71.7397 652.68 43.0932 672.262C32.8956 679.302 19.8749 688.45 5.00143 694.865" stroke="#FE5801" stroke-width="10" stroke-linecap="round" stroke-dasharray="20 20"/>
</svg>
