<svg width="616" height="532" viewBox="0 0 616 532" fill="none" xmlns="http://www.w3.org/2000/svg">
<path d="M5 5.00098C14.282 49.2478 26.9179 76.5505 42.4059 115.341C57.0942 152.128 87.1907 176.11 148.743 222.225C189.595 252.831 266.117 258.845 312.598 245.944C342.649 237.603 358.023 199.046 378.162 151.178C385.754 133.135 382.77 116.566 376.111 101.619C365.887 78.6677 340.75 73.2678 328.112 67.6565C315.797 62.1887 302.701 65.1133 291.725 71.9041C269.142 85.8769 270.019 126.262 266.662 160.311C263.875 188.582 268.923 212.614 275.3 226.513C282.04 241.205 292.069 252.87 302.315 262.125C323.154 280.949 361.124 277.297 455.509 280.043C496.722 281.242 522.906 299.497 545.695 314.454C569.908 330.345 593.451 358.305 607.678 386.939C613.045 427.144 610.596 474.299 605.151 493.125C602.154 502.487 598.684 511.459 593.369 526.146" stroke="#FE5801" stroke-width="10" stroke-linecap="round" stroke-dasharray="20 20"/>
</svg>
