<svg width="613" height="254" viewBox="0 0 613 254" fill="none" xmlns="http://www.w3.org/2000/svg">
<path d="M5 249.001C5 225.683 12.2571 172.593 32.4149 159.007C56.7576 142.601 109.45 137.124 159.987 136.861C194.233 136.683 233.002 166.045 279.368 187.24C310.834 201.625 341.915 205.999 378.463 209.423C423.304 213.623 458.897 210.177 471.499 207.354C497.668 201.492 514.722 183.832 545.002 145.44C556.841 122.951 562.175 106.634 563.013 96.3953C563.396 91.1088 563.693 85.6378 564 80.001" stroke="#FE5801" stroke-width="10" stroke-linecap="round" stroke-dasharray="20 20"/>
<path d="M554.235 1.78763C554.727 2.19862 555.276 2.88464 555.87 3.89629C557.058 5.91802 558.364 9.12414 559.761 13.6581C562.552 22.7125 565.669 36.9422 568.939 57.2882C568.94 57.2938 568.941 57.3007 568.941 57.3084C568.943 57.3359 568.946 57.3771 568.95 57.431C568.957 57.539 568.968 57.6989 568.982 57.9063C569.009 58.3219 569.048 58.9287 569.095 59.6907C569.188 61.2151 569.311 63.3629 569.426 65.8537C569.658 70.8377 569.864 77.1878 569.764 82.6732L569.758 83.0403L570.07 83.1822C572.161 84.134 576.664 86.2768 580.133 88.5715L581.175 92.1171C581.057 92.0784 580.929 92.0351 580.792 91.991C580.023 91.7446 578.956 91.4228 577.766 91.1202C575.585 90.5656 572.917 90.057 570.912 90.2458L570.493 87.7396L569.551 87.7607C569.406 89.7867 569.187 91.4826 568.88 92.6819C568.725 93.2834 568.555 93.7301 568.379 94.026C568.2 94.3266 568.057 94.4035 567.973 94.417C567.895 94.4294 567.75 94.4067 567.513 94.2138C567.278 94.0221 567.003 93.7029 566.695 93.246C566.081 92.3343 565.4 90.9736 564.683 89.2926L563.784 89.5744L564.058 91.3498C562.095 91.8004 559.72 93.1207 557.823 94.3323C556.788 94.9933 555.877 95.6347 555.224 96.1101C555.108 96.1951 555 96.2763 554.9 96.35L554.777 92.6567C557.284 89.4738 560.762 86.1263 562.502 84.5112L562.753 84.2787L562.631 83.9322C560.812 78.7501 559.009 72.6296 557.66 67.7995C556.985 65.3858 556.425 63.2967 556.033 61.8111C555.838 61.0687 555.684 60.4771 555.579 60.0712C555.527 59.8684 555.487 59.7113 555.46 59.6057C555.446 59.5528 555.436 59.512 555.429 59.4852C555.428 59.4794 555.427 59.4742 555.425 59.4697C555.163 57.8368 554.916 56.2544 554.676 54.6956L554.584 54.0987L554.062 54.2648C547.965 56.1991 540.884 60.3504 535.348 63.9978C532.575 65.8247 530.18 67.5315 528.479 68.7815C527.634 69.4029 526.959 69.9114 526.494 70.2663L526.026 56.2171C534.265 45.6833 545.984 34.5112 551.219 29.6805L551.406 29.508L551.38 29.2365C550.446 19.6056 550.255 12.6409 550.639 8.04176C550.832 5.7384 551.166 4.06417 551.605 2.95287C552.048 1.83015 552.547 1.39691 553.013 1.32194C553.347 1.26812 553.747 1.38094 554.235 1.78763Z" fill="#361E1C" stroke="#361E1C"/>
<path d="M606.036 56.4645C605.983 56.4463 605.928 56.427 605.871 56.4074C605.208 56.1798 604.248 55.8566 603.059 55.4756C600.68 54.7138 597.381 53.7183 593.702 52.7836C586.568 50.9709 577.923 49.3654 571.796 50.1918L569.595 25.6729C569.634 25.6899 569.674 25.7077 569.716 25.7261C570.256 25.9641 571.045 26.3146 572.038 26.7668C574.023 27.6714 576.822 28.9803 580.08 30.5948C586.553 33.8024 594.823 38.2129 602.102 43.063L606.036 56.4645Z" fill="#361E1C" stroke="#361E1C"/>
</svg>
