<svg width="423" height="424" viewBox="0 0 423 424" fill="none" xmlns="http://www.w3.org/2000/svg">
<path d="M5 106.68C5.83811 100.733 11.2505 82.1925 23.8496 62.5917C36.8277 42.4014 63.2573 25.7939 91.2057 14.4C137.664 -4.54008 196.388 8.61102 222.055 23.4171C242.577 35.2553 248.077 56.1759 255.162 77.1255C267.134 112.532 255.687 168.279 249.135 188.737C242.562 209.264 244.417 248.948 251.124 277.748C256.188 299.49 283.461 314.392 303.766 328.701C315.594 337.035 328.21 339.79 339.739 340.849C355.696 342.316 372.826 336.586 386.444 327.704C406.328 314.736 413.482 293.409 417.207 268.858C418.374 261.172 417.556 252.087 415.59 245.901C413.625 239.716 409.695 236.624 405.176 234.317C396.078 229.673 377.675 229.008 356.166 230.558C332.684 232.251 326.428 261.776 316.796 290.879C312.97 332.502 313.593 389.046 316.127 398C317.215 402.571 317.903 407.201 318.612 418.347" stroke="#FE5801" stroke-width="10" stroke-linecap="round" stroke-dasharray="20 20"/>
</svg>
