<svg width="349" height="233" viewBox="0 0 349 233" fill="none" xmlns="http://www.w3.org/2000/svg">
<path d="M343.888 5C333.501 5 302.972 11.0289 287.958 20.9789C274.473 29.9156 272.635 51.083 270.675 80.2293C269.391 99.3273 266.005 116.007 262.847 131.253C259.586 146.991 254.801 162.796 246.486 177.672C238.777 191.464 225.252 202.998 209.083 216.15C193.376 228.926 175.478 227.885 142.569 227.744C121.285 227.653 107.18 214.297 95.0482 204.875C92.325 202.153 89.8512 199.138 87.5457 195.973C85.2402 192.808 83.1779 189.582 75.9058 178.647" stroke="#FE5801" stroke-width="10" stroke-linecap="round" stroke-dasharray="20 20"/>
<path d="M4.08861 97.7358C4.07924 98.4769 4.24175 99.4443 4.61051 100.658C5.34767 103.083 6.87758 106.392 9.31979 110.653C14.1992 119.168 22.6656 131.392 35.5145 147.792C35.5175 147.795 35.521 147.799 35.5249 147.803C35.5438 147.823 35.5721 147.852 35.6092 147.891C35.6837 147.969 35.7943 148.085 35.9379 148.235C36.225 148.534 36.6447 148.97 37.1735 149.515C38.2317 150.606 39.7275 152.134 41.4792 153.883C44.9847 157.382 49.507 161.759 53.5879 165.288L53.8269 165.495L53.7536 165.797C53.1322 168.334 51.8587 173.875 51.3586 178.562L53.2746 181.8C53.3154 181.682 53.3585 181.555 53.4059 181.42C53.7088 180.561 54.143 179.381 54.6694 178.103C55.6482 175.727 56.9739 172.933 58.3904 171.25L56.7621 169.145L57.4488 168.451C59.0246 169.656 60.4007 170.574 61.4669 171.083C62.0025 171.339 62.4266 171.475 62.7396 171.509C62.971 171.534 63.1 171.5 63.1758 171.454L63.2359 171.406C63.3087 171.328 63.3915 171.15 63.3999 170.782C63.4081 170.423 63.3439 169.948 63.2017 169.362C62.9177 168.191 62.3456 166.668 61.565 164.906L62.4079 164.411L63.4991 165.785C65.0664 164.317 67.5035 163.046 69.569 162.129C70.7061 161.625 71.7507 161.219 72.5108 160.939C72.6875 160.875 72.8497 160.818 72.9935 160.767L70.2735 158.13C66.3787 158.311 61.764 159.254 59.4924 159.767L59.1119 159.853L58.9279 159.5C56.2759 154.425 52.926 148.747 50.2366 144.334C48.8926 142.129 47.7146 140.241 46.8727 138.905C46.4517 138.236 46.1143 137.706 45.8827 137.343C45.7671 137.162 45.678 137.022 45.6176 136.928C45.5874 136.881 45.5639 136.845 45.5485 136.821C45.5447 136.815 45.5411 136.81 45.5382 136.805C44.5066 135.489 43.5031 134.22 42.5118 132.973L42.2002 132.58L42.5774 132.275C47.8339 128.013 55.3355 124.319 61.4944 121.697C64.5789 120.384 67.3374 119.336 69.3248 118.615C70.3185 118.255 71.1203 117.977 71.6737 117.788C71.7054 117.778 71.7364 117.767 71.7665 117.757L61.6764 107.971C48.7878 108.507 33.2538 111.771 26.4257 113.337L26.1366 113.403L25.9343 113.178C19.466 105.973 14.485 101.203 10.8757 98.5193C9.06696 97.1742 7.63649 96.3788 6.5588 96.0477C5.48146 95.7168 4.88147 95.8801 4.54001 96.2464C4.27778 96.5277 4.09799 96.9942 4.08861 97.7358Z" fill="#361E1C" stroke="#361E1C"/>
<path d="M14.0795 180.276C14.0967 180.225 14.1147 180.172 14.1331 180.117C14.3883 179.356 14.7629 178.258 15.2412 176.91C16.1976 174.216 17.5695 170.519 19.2302 166.515C22.4683 158.706 26.8376 149.645 31.4022 144.586L14.4858 126.153C14.474 126.198 14.462 126.246 14.4493 126.295C14.2804 126.951 14.0374 127.912 13.7383 129.127C13.1402 131.558 12.3201 135.009 11.4355 139.085C9.67544 147.196 7.6607 157.775 6.61386 167.731L14.0795 180.276Z" fill="#361E1C" stroke="#361E1C"/>
</svg>
