<svg width="505" height="542" viewBox="0 0 505 542" fill="none" xmlns="http://www.w3.org/2000/svg">
<path d="M504.797 60.3402C504.797 59.8605 504.771 59.3819 504.73 58.9046C504.717 58.7553 504.695 58.6066 504.678 58.4576C504.641 58.1271 504.597 57.7976 504.54 57.4686C504.51 57.2961 504.476 57.1242 504.441 56.9524C504.377 56.6414 504.304 56.3313 504.224 56.0218C504.179 55.8509 504.136 55.6799 504.087 55.5096C503.988 55.172 503.875 54.8354 503.756 54.4996C503.708 54.3651 503.667 54.2301 503.617 54.0959C503.444 53.6411 503.253 53.1876 503.043 52.736C502.973 52.5842 502.891 52.4333 502.817 52.2818C502.666 51.9746 502.511 51.6673 502.342 51.3615C502.234 51.1649 502.118 50.9689 502.003 50.7729C501.851 50.5145 501.694 50.2563 501.53 49.9988C501.396 49.7886 501.26 49.579 501.118 49.3697C500.952 49.1255 500.778 48.8819 500.602 48.6386C500.448 48.4265 500.297 48.2138 500.135 48.0027C499.944 47.7526 499.738 47.504 499.535 47.2549C499.21 46.8561 498.87 46.4591 498.516 46.0634C498.337 45.8637 498.163 45.6637 497.977 45.4646C497.738 45.2084 497.485 44.9536 497.233 44.6986C497.06 44.5236 496.888 44.3486 496.71 44.1743C496.441 43.9112 496.164 43.649 495.882 43.3875C495.713 43.2308 495.541 43.0743 495.367 42.9182C495.06 42.6409 494.749 42.3646 494.427 42.0888C494.3 41.98 494.167 41.8715 494.037 41.763C492.794 40.7196 491.45 39.6886 490.006 38.6709C489.959 38.6372 489.913 38.6035 489.864 38.5698C489.39 38.2369 488.901 37.9064 488.406 37.5766C488.313 37.515 488.221 37.4538 488.129 37.3923C487.62 37.0572 487.102 36.7239 486.573 36.3919C486.53 36.3647 486.486 36.3378 486.442 36.3106C452.207 14.9436 373.726 0 282.366 0C159.521 0 59.9362 27.015 59.9362 60.3402C59.9362 61.9098 60.1582 63.4651 60.5919 65.0046C60.509 73.0469 59.9427 128.302 59.9365 138.172C30.7216 148.383 13.3191 161.206 13.3191 175.133C13.3191 176.703 13.5407 178.259 13.9748 179.798C13.8913 187.885 13.3191 243.72 13.3191 253.134C13.3191 264.856 25.6542 275.795 46.9754 285.055C46.7448 286.18 46.6171 287.313 46.6171 288.455C46.6171 290.024 46.8391 291.58 47.2728 293.119C47.19 301.161 46.6236 356.417 46.6171 366.287C17.4022 376.498 0 389.321 0 403.248C0 404.818 0.221965 406.373 0.655692 407.913C0.572532 415.999 0 471.835 0 481.249C0 514.574 99.5853 541.589 222.43 541.589C345.275 541.589 444.86 514.574 444.86 481.249C444.86 473.151 444.86 407.107 444.86 403.417C474.075 393.206 491.478 380.383 491.478 366.455C491.478 358.135 491.478 288.632 491.478 288.459C491.478 288.458 491.478 288.456 491.478 288.455C491.478 287.975 491.452 287.496 491.41 287.019C491.397 286.87 491.376 286.721 491.359 286.572C491.321 286.242 491.278 285.912 491.221 285.584C491.191 285.411 491.157 285.239 491.122 285.067C491.058 284.756 490.985 284.446 490.904 284.137C490.86 283.966 490.817 283.795 490.767 283.624C490.669 283.287 490.556 282.951 490.437 282.616C490.389 282.481 490.348 282.345 490.297 282.21C490.124 281.756 489.934 281.302 489.724 280.851C489.654 280.698 489.571 280.547 489.497 280.394C489.345 280.088 489.191 279.782 489.023 279.476C488.915 279.279 488.798 279.083 488.683 278.887C488.531 278.629 488.375 278.372 488.211 278.115C488.077 277.904 487.94 277.693 487.798 277.483C487.633 277.24 487.459 276.998 487.284 276.756C487.13 276.543 486.978 276.329 486.815 276.116C486.625 275.867 486.42 275.62 486.218 275.372C485.892 274.973 485.551 274.574 485.196 274.178C485.017 273.978 484.844 273.778 484.658 273.579C484.418 273.322 484.164 273.067 483.912 272.812C483.741 272.638 483.569 272.463 483.392 272.29C483.121 272.026 482.843 271.762 482.56 271.5C482.393 271.344 482.223 271.19 482.051 271.035C481.742 270.757 481.429 270.478 481.106 270.202C480.98 270.095 480.849 269.988 480.722 269.881C479.474 268.834 478.126 267.799 476.676 266.778C476.633 266.747 476.591 266.717 476.548 266.687C476.071 266.352 475.581 266.021 475.083 265.689C474.993 265.629 474.902 265.568 474.811 265.508C474.302 265.173 473.782 264.839 473.252 264.506C473.21 264.48 473.167 264.454 473.126 264.428C468.731 261.685 463.608 259.048 457.82 256.534C458.051 255.408 458.179 254.275 458.179 253.134C458.179 245.036 458.179 178.993 458.179 175.302C487.393 165.091 504.796 152.268 504.796 138.341C504.796 130.019 504.796 60.5134 504.796 60.344C504.797 60.343 504.797 60.3415 504.797 60.3402Z" fill="#F6A67C"/>
<path d="M458.173 175.305C457.83 208.55 358.383 235.473 235.75 235.473C118.691 235.473 22.7535 210.943 13.976 179.797C13.8925 187.884 13.3203 243.72 13.3203 253.134C13.3203 286.459 112.906 313.474 235.75 313.474C358.595 313.474 458.18 286.459 458.18 253.134C458.18 245.043 458.18 179.107 458.18 175.304C458.18 175.191 458.18 175.133 458.18 175.133L458.173 175.305Z" fill="#FE5801"/>
<path d="M86.5277 166.972C79.7182 163.551 74.0909 159.933 69.7944 156.155C61.2986 160.744 56.6055 165.763 56.6055 171.024C56.6055 192.801 136.81 210.454 235.748 210.454C301.18 210.454 358.409 202.732 389.673 191.203C357.853 195.967 321.28 198.681 282.365 198.681C197.716 198.681 124.115 185.852 86.5277 166.972Z" fill="#FF8647"/>
<path d="M228.422 235.438V313.424C230.859 313.445 233.29 313.474 235.747 313.474C236.864 313.474 237.964 313.455 239.077 313.451V235.462C237.968 235.467 236.861 235.474 235.747 235.474C233.295 235.474 230.855 235.459 228.422 235.438Z" fill="#DF5107"/>
<path d="M178.145 311.419C181.663 311.675 185.215 311.906 188.8 312.115V234.124C185.216 233.915 181.662 233.684 178.145 233.429V311.419Z" fill="#DF5107"/>
<path d="M127.863 305.9C131.362 306.428 134.907 306.936 138.518 307.413V229.417C134.909 228.94 131.36 228.436 127.863 227.908V305.9Z" fill="#DF5107"/>
<path d="M77.5859 295.549C81.0217 296.492 84.584 297.399 88.2415 298.28V220.295C84.5784 219.414 81.027 218.5 77.5859 217.556V295.549Z" fill="#DF5107"/>
<path d="M27.3047 274.216C30.3822 276.454 33.9648 278.624 37.9602 280.727V202.761C33.9516 200.653 30.3915 198.473 27.3047 196.229V274.216Z" fill="#DF5107"/>
<path d="M278.703 312.339C282.287 312.149 285.838 311.935 289.358 311.699V233.705C285.839 233.941 282.287 234.155 278.703 234.345V312.339Z" fill="#DF5107"/>
<path d="M328.984 307.916C332.588 307.464 336.144 306.99 339.64 306.488V228.496C336.142 228.998 332.59 229.476 328.984 229.928V307.916Z" fill="#DF5107"/>
<path d="M379.262 299.219C382.92 298.38 386.467 297.507 389.917 296.606V218.623C386.471 219.522 382.915 220.391 379.262 221.229V299.219Z" fill="#DF5107"/>
<path d="M429.543 282.741C433.456 280.86 437.033 278.922 440.198 276.922V198.93C437.028 200.932 433.464 202.877 429.543 204.76V282.741Z" fill="#DF5107"/>
<path d="M219.765 228.851C147.178 228.851 82.7283 219.415 42.1289 204.821C80.3343 223.117 152.701 235.473 235.748 235.473C358.382 235.473 457.828 208.55 458.17 175.305C451.62 177.594 444.477 179.751 436.802 181.761C414.54 208.711 325.828 228.851 219.765 228.851Z" fill="#E58D5F"/>
<path d="M56.6055 171.024C56.6055 173.864 57.9994 176.631 60.5909 179.3C65.9728 174.828 74.8631 170.672 86.528 166.972C79.7185 163.551 74.0912 159.933 69.7947 156.155C61.2989 160.744 56.6055 165.763 56.6055 171.024Z" fill="#FE5801"/>
<path d="M486.817 84.1379C483.646 86.1405 480.084 88.0866 476.162 89.9705C465.471 95.1051 452.093 99.7725 436.537 103.832C433.091 104.731 429.535 105.599 425.882 106.436C413.722 109.225 400.446 111.666 386.257 113.703C382.759 114.205 379.207 114.683 375.602 115.135C362.987 116.718 349.736 117.988 335.977 118.912C332.458 119.148 328.906 119.362 325.322 119.552C312.475 120.234 299.233 120.615 285.698 120.669C284.588 120.673 283.481 120.68 282.368 120.68C279.915 120.68 277.476 120.666 275.042 120.644C261.492 120.525 248.251 120.077 235.418 119.329C231.833 119.12 228.281 118.888 224.762 118.632C210.982 117.633 197.727 116.285 185.138 114.622C181.529 114.146 177.979 113.642 174.482 113.115C160.241 110.968 146.961 108.409 134.858 105.498C131.198 104.617 127.642 103.705 124.203 102.762C108.392 98.4237 94.9859 93.44 84.578 87.9676C80.5687 85.8595 77.0093 83.6788 73.9225 81.4351C66.7797 76.2437 62.2029 70.7137 60.5935 64.9584C60.5119 72.8743 59.9375 128.909 59.9375 138.34C59.9375 171.665 159.523 198.68 282.367 198.68C405.212 198.68 504.797 171.665 504.797 138.34C504.797 130.009 504.797 60.3398 504.797 60.3398C504.798 68.7918 498.382 76.8357 486.817 84.1379Z" fill="#FE5801"/>
<path d="M275.043 120.644V198.63C277.48 198.651 279.911 198.68 282.368 198.68C283.485 198.68 284.585 198.661 285.698 198.657V120.668C284.589 120.673 283.481 120.68 282.368 120.68C279.916 120.68 277.477 120.665 275.043 120.644Z" fill="#DF5107"/>
<path d="M224.762 196.625C228.28 196.88 231.832 197.112 235.417 197.321V119.328C231.832 119.119 228.28 118.887 224.762 118.632V196.625Z" fill="#DF5107"/>
<path d="M174.484 191.107C177.984 191.635 181.528 192.142 185.14 192.619V114.622C181.531 114.145 177.981 113.641 174.484 113.114V191.107Z" fill="#DF5107"/>
<path d="M124.203 180.755C127.639 181.698 131.201 182.606 134.859 183.486V105.497C131.198 104.616 127.642 103.704 124.203 102.761V180.755Z" fill="#DF5107"/>
<path d="M73.9219 159.423C76.9991 161.66 80.5817 163.83 84.5774 165.933V87.9671C80.5681 85.859 77.0087 83.6783 73.9219 81.4346V159.423Z" fill="#DF5107"/>
<path d="M325.32 197.545C328.904 197.355 332.455 197.141 335.976 196.905V118.911C332.456 119.147 328.904 119.361 325.32 119.551V197.545Z" fill="#DF5107"/>
<path d="M375.602 193.123C379.205 192.671 382.761 192.197 386.257 191.694V113.703C382.759 114.205 379.207 114.683 375.602 115.135V193.123Z" fill="#DF5107"/>
<path d="M425.883 184.425C429.541 183.586 433.088 182.713 436.538 181.812V103.831C433.092 104.73 429.536 105.598 425.883 106.436V184.425Z" fill="#DF5107"/>
<path d="M476.16 167.947C480.073 166.066 483.65 164.128 486.816 162.128V84.1377C483.644 86.1403 480.083 88.0864 476.16 89.9703V167.947Z" fill="#DF5107"/>
<path d="M282.369 95.6605C381.307 95.6605 461.512 78.0072 461.512 56.2306C461.512 34.4541 381.307 16.8008 282.369 16.8008C183.431 16.8008 103.227 34.4541 103.227 56.2306C103.227 78.0072 183.431 95.6605 282.369 95.6605Z" fill="#FF8647"/>
<path d="M107.212 64.507C127.514 47.6353 197.332 35.1975 280.372 35.1975C366.408 35.1975 438.248 48.5494 455.529 66.351C459.416 63.1208 461.512 59.7301 461.512 56.2306C461.512 34.454 381.307 16.8008 282.37 16.8008C183.432 16.8008 103.227 34.454 103.227 56.2306C103.226 59.0704 104.62 61.8376 107.212 64.507Z" fill="#FE5801"/>
<path d="M460.008 24.0293C478.315 32.7966 488.817 42.9216 488.817 53.7172C488.817 87.0415 389.231 114.057 266.387 114.057C193.799 114.057 129.349 104.621 88.75 90.0281C126.955 108.324 199.322 120.68 282.37 120.68C405.214 120.68 504.799 93.6648 504.799 60.3399C504.799 46.7067 488.116 34.133 460.008 24.0293Z" fill="#E58D5F"/>
<path d="M235.75 313.473C189.849 313.473 147.198 309.7 111.773 303.237C142.181 315.474 201.209 323.775 269.048 323.775C367.986 323.775 448.19 306.122 448.19 284.345C448.19 281.124 446.423 277.995 443.114 274.999C438.359 278.315 432.561 281.489 425.818 284.491C386.773 301.869 316.258 313.473 235.75 313.473Z" fill="#FF8647"/>
<path d="M473.497 312.252C470.325 314.255 466.764 316.201 462.841 318.085C452.151 323.219 438.773 327.887 423.217 331.945C419.771 332.845 416.215 333.713 412.562 334.551C400.402 337.34 387.125 339.78 372.937 341.817C369.439 342.319 365.887 342.797 362.281 343.25C349.667 344.832 336.416 346.102 322.657 347.026C319.138 347.262 315.585 347.476 312.002 347.666C299.155 348.348 285.913 348.729 272.377 348.783C271.268 348.788 270.161 348.794 269.048 348.794C266.595 348.794 264.155 348.78 261.722 348.759C248.172 348.639 234.93 348.191 222.097 347.443C218.513 347.234 214.96 347.002 211.442 346.747C197.662 345.747 184.407 344.399 171.818 342.737C168.209 342.26 164.659 341.756 161.162 341.229C146.92 339.082 133.641 336.524 121.538 333.612C117.877 332.731 114.322 331.82 110.882 330.876C95.0715 326.538 81.6659 321.554 71.2577 316.082C67.2484 313.974 63.6889 311.793 60.6022 309.549C53.4594 304.358 48.8826 298.828 47.2732 293.073C47.1916 300.988 46.6172 357.023 46.6172 366.455C46.6172 399.78 146.202 426.795 269.047 426.795C391.892 426.795 491.477 399.78 491.477 366.455C491.477 358.123 491.477 288.454 491.477 288.454C491.478 296.906 485.062 304.95 473.497 312.252Z" fill="#FE5801"/>
<path d="M261.723 348.759V426.745C264.16 426.767 266.591 426.795 269.048 426.795C270.165 426.795 271.265 426.777 272.378 426.772V348.784C271.268 348.788 270.161 348.795 269.048 348.795C266.596 348.795 264.156 348.78 261.723 348.759Z" fill="#DF5107"/>
<path d="M211.441 424.741C214.96 424.996 218.512 425.227 222.097 425.436V347.444C218.512 347.235 214.96 347.002 211.441 346.747V424.741Z" fill="#DF5107"/>
<path d="M161.164 419.222C164.663 419.75 168.208 420.257 171.82 420.734V342.737C168.211 342.26 164.66 341.757 161.164 341.229V419.222Z" fill="#DF5107"/>
<path d="M110.883 408.871C114.319 409.813 117.881 410.721 121.538 411.601V333.612C117.877 332.731 114.322 331.82 110.883 330.876V408.871Z" fill="#DF5107"/>
<path d="M60.6016 387.538C63.6791 389.776 67.2614 391.946 71.2571 394.049V316.082C67.2478 313.974 63.6883 311.794 60.6016 309.55V387.538Z" fill="#DF5107"/>
<path d="M312.004 425.66C315.588 425.47 319.139 425.256 322.659 425.02V347.026C319.14 347.263 315.587 347.476 312.004 347.666V425.66Z" fill="#DF5107"/>
<path d="M362.281 421.238C365.885 420.786 369.441 420.311 372.937 419.809V341.817C369.439 342.319 365.887 342.797 362.281 343.25V421.238Z" fill="#DF5107"/>
<path d="M412.562 412.54C416.221 411.701 419.768 410.827 423.218 409.926V331.945C419.772 332.845 416.216 333.712 412.562 334.55V412.54Z" fill="#DF5107"/>
<path d="M462.84 396.061C466.753 394.181 470.33 392.242 473.495 390.243V312.252C470.324 314.255 466.763 316.201 462.84 318.085V396.061Z" fill="#DF5107"/>
<path d="M442.206 294.465C446.093 291.235 448.189 287.844 448.189 284.345C448.189 281.124 446.422 277.995 443.113 274.999C438.358 278.315 432.56 281.489 425.816 284.491C433.198 287.597 438.785 290.942 442.206 294.465Z" fill="#FE5801"/>
<path d="M457.817 256.539C457.714 257.039 457.589 257.538 457.442 258.034C469.029 265.337 475.496 273.376 475.496 281.832C475.496 315.156 375.91 342.172 253.066 342.172C180.478 342.172 116.028 332.736 75.4297 318.143C113.635 336.439 186.001 348.795 269.049 348.795C391.893 348.795 491.479 321.78 491.479 288.455C491.479 276.733 479.138 265.798 457.817 256.539Z" fill="#E58D5F"/>
<path d="M56.478 384.271C47.9822 388.859 43.2891 393.879 43.2891 399.14C43.2891 420.916 123.494 438.569 222.431 438.569C287.864 438.569 345.093 430.847 376.357 419.318C344.537 424.082 307.963 426.796 269.049 426.796C169.065 426.796 84.4934 408.899 56.478 384.271Z" fill="#FF8647"/>
<path d="M426.879 427.046C423.707 429.048 420.146 430.995 416.224 432.878C405.533 438.013 392.155 442.68 376.599 446.739C373.153 447.639 369.597 448.507 365.944 449.345C353.784 452.134 340.508 454.574 326.319 456.611C322.821 457.113 319.269 457.591 315.664 458.043C303.049 459.625 289.797 460.896 276.039 461.82C272.52 462.056 268.967 462.27 265.384 462.46C252.537 463.142 239.295 463.523 225.76 463.577C224.65 463.581 223.543 463.588 222.429 463.588C219.977 463.588 217.538 463.573 215.104 463.552C201.554 463.433 188.312 462.985 175.48 462.237C171.895 462.028 168.343 461.796 164.824 461.54C151.044 460.54 137.788 459.193 125.2 457.53C121.591 457.053 118.041 456.55 114.545 456.023C100.303 453.875 87.0236 451.317 74.9203 448.405C71.2598 447.525 67.704 446.613 64.2648 445.669C48.454 441.331 35.0481 436.348 24.6402 430.875C20.6309 428.767 17.0715 426.587 13.985 424.343C6.84224 419.152 2.26509 413.622 0.656003 407.867C0.574389 415.782 0 471.816 0 481.249C0 514.574 99.5852 541.589 222.43 541.589C345.275 541.589 444.86 514.574 444.86 481.249C444.86 472.917 444.86 403.248 444.86 403.248C444.86 411.7 438.444 419.744 426.879 427.046Z" fill="#FE5801"/>
<path d="M215.105 463.553V541.539C217.543 541.56 219.974 541.589 222.431 541.589C223.548 541.589 224.648 541.571 225.761 541.566V463.577C224.651 463.582 223.544 463.589 222.431 463.589C219.978 463.589 217.539 463.574 215.105 463.553Z" fill="#DF5107"/>
<path d="M164.824 539.535C168.342 539.79 171.895 540.022 175.48 540.231V462.238C171.895 462.029 168.343 461.796 164.824 461.541V539.535Z" fill="#DF5107"/>
<path d="M114.547 534.016C118.046 534.544 121.59 535.051 125.202 535.528V457.531C121.593 457.054 118.043 456.551 114.547 456.023V534.016Z" fill="#DF5107"/>
<path d="M64.2656 523.665C67.7014 524.607 71.264 525.515 74.9211 526.395V448.406C71.2606 447.525 67.7048 446.613 64.2656 445.67V523.665Z" fill="#DF5107"/>
<path d="M13.9844 502.332C17.0616 504.57 20.6442 506.739 24.6396 508.842V430.876C20.6303 428.768 17.0709 426.587 13.9844 424.344V502.332Z" fill="#DF5107"/>
<path d="M265.383 540.453C268.967 540.263 272.518 540.049 276.038 539.813V461.819C272.519 462.056 268.966 462.269 265.383 462.459V540.453Z" fill="#DF5107"/>
<path d="M315.664 536.032C319.267 535.58 322.823 535.105 326.32 534.603V456.611C322.822 457.113 319.27 457.591 315.664 458.044V536.032Z" fill="#DF5107"/>
<path d="M365.945 527.334C369.604 526.495 373.15 525.622 376.601 524.721V446.74C373.155 447.64 369.599 448.507 365.945 449.345V527.334Z" fill="#DF5107"/>
<path d="M416.223 510.855C420.136 508.974 423.713 507.036 426.878 505.037V427.046C423.706 429.049 420.145 430.995 416.223 432.879V510.855Z" fill="#DF5107"/>
<path d="M206.449 456.966C133.861 456.966 69.4115 447.53 28.8125 432.937C67.0179 451.232 139.384 463.588 222.432 463.588C345.065 463.588 444.512 436.666 444.854 403.42C438.304 405.709 431.161 407.867 423.486 409.876C401.223 436.826 312.511 456.966 206.449 456.966Z" fill="#E58D5F"/>
<path d="M43.2891 399.139C43.2891 401.979 44.6833 404.746 47.2748 407.416C52.6567 402.943 61.5467 398.787 73.2119 395.087C66.4024 391.667 60.7751 388.048 56.4783 384.271C47.9822 388.859 43.2891 393.878 43.2891 399.139Z" fill="#FE5801"/>
</svg>
