<?xml version="1.0" encoding="UTF-8"?><svg id="Layer_1" xmlns="http://www.w3.org/2000/svg" width="118.39mm" height="179.62mm" viewBox="0 0 335.6 509.17"><defs><style>.cls-1{fill:none;stroke:#fc5900;stroke-miterlimit:10;stroke-width:2px;}</style></defs><path class="cls-1" d="M326.53,274.97s7.7,2.1,7.82,6.45c.49,17.92,1.41,43.28,0,62.49-.2,2.67-7.82,5.95-7.82,5.95,0,0-21.32,1.58-28.24,0-4.76-1.09-13.59-6.45-17.38-9.92-3.49-3.18-8.54-11.93-9.99-16.9-1.44-4.92-1-15.51.15-20.68,1.01-4.54,4.87-13.06,7.66-16.48,3.38-4.14,12.45-10.33,17.38-10.91,7.74-.91,30.41,0,30.41,0v-107.31"/><path class="cls-1" d="M325.42,349.96l.25,105.14s-.88,6.86-1.74,8.93-4.08,5.98-6.08,5.95c-65.8-1.08-215.08,2.41-291.73,0-4.49-.14-13.26-4.06-16.85-7.19-3.29-2.86-8.24-13.64-8.31-18.36-1.12-74.99.17-307.51.17-307.51,0,0,9.8,14.14,13.49,16.27,3.4,1.96,10.57,5.5,14.37,5.74,79.06,4.99,225.08-.07,292.74,1.9,2.11.06,4.81,5.53,4.81,7.94"/><path class="cls-1" d="M1.12,136.92c0-9.08,1.59-22.3,5.66-30.1,2.04-3.9,8.55-10.14,12.37-11.4,10.85-3.61,45.2,0,45.2,0h5.71l-34.55,63.49"/><path class="cls-1" d="M70.06,95.42S109.25,24.17,124.77,3.64c.94-1.24,3.28-4.26,5.23-2.72,13.4,10.61,39.01,41.27,39.01,41.27l3,3.53-115.79,106.83,3.22-7.18s43.76-82.35,59.14-106.44c1.57-2.45,6.86,5.47,9.51,5.43,3.13-.04,11.04-6.7,11.04-6.7,0,0,2.98-2.89,4.66-.9,4.61,5.48,15.92,19.79,15.92,19.79"/><path class="cls-1" d="M171.39,46.55s20.72-27.81,28.05-22.6c13.58,9.64,34.27,55.95,34.27,55.95,0,0,2.09,4.44,0,5.75-35.07,22-151.29,59.73-151.29,59.73,0,0,76.81-67.1,97.05-88.52,2.46-2.61,9.11,5.04,12.37,5.97,2.22.64,8.97-1.15,8.97-1.15,0,0,3.91-1.96,4.83-1.02,5.85,5.97,14.65,30.28,14.65,30.28"/><path class="cls-1" d="M96.91,160.84s108.44-50.49,136.81-58.36c3.21-.89,5.28,9.94,8.09,11.95,2.47,1.77,11.42,2.72,11.42,2.72,0,0,3.82.94,4.28,2.17,3.39,8.96,7.43,40.07,7.43,40.07"/><path class="cls-1" d="M234.39,84.84s18.64-4.27,25.01-4.95c1.37-.15,4.34,1.65,4.76,3.15,2.19,7.9,5.89,31.38,5.89,31.38l9.44,45.93"/><path class="cls-1" d="M266.76,95.22s20.29-1.3,26.42,0c2.18.46,6.12,4.73,6.18,7.26.31,12.64.19,57.96.19,57.96"/><ellipse class="cls-1" cx="302.85" cy="315.51" rx="11.11" ry="14.32"/></svg>