<?xml version="1.0" encoding="UTF-8"?><svg id="Layer_1" xmlns="http://www.w3.org/2000/svg" width="97.72mm" height="163.37mm" viewBox="0 0 276.99 463.09"><defs><style>.cls-1{fill:none;stroke:#fc5900;stroke-miterlimit:10;stroke-width:3px;}</style></defs><path class="cls-1" d="M275.99,232.67c0,80.55-61.56,145.85-137.5,145.85S1,313.22,1,232.67c0-46.79,20.78-88.44,53.08-115.13,23.3-19.25,52.6-30.72,84.42-30.72,75.94,0,137.5,65.3,137.5,145.85Z"/><path class="cls-1" d="M54.08,117.54l3.3-56.77s.85-29.64,3.41-36.28c1.77-4.59,8.36-12.6,12.4-15.65S86.72.78,91.8,1.01c28.16,1.28,78-.33,99.93,3.26,4.93.81,14.39,5.11,17.92,8.48,4.18,3.99,10.34,14.09,11.72,19.56,5.31,21.14,3.45,86.84,3.45,86.84"/><polyline class="cls-1" points="139.17 166.85 138.5 232.67 167.69 260.6"/><path class="cls-1" d="M53.21,347.07s1.01,62.4,6.28,83.81c1.37,5.55,7.33,15.42,7.33,15.42,0,0,10.61,11.19,16.12,11.96,31.22,4.37,84.7,4.82,110.03,2.28,4.88-.49,13.35-6.73,16.18-10.52,4.23-5.69,8.82-19.24,10.39-26.03,4.34-18.83,5.58-76.91,5.58-76.91"/></svg>