<svg width="525" height="882" viewBox="0 0 525 882" fill="none" xmlns="http://www.w3.org/2000/svg">
<path d="M506.758 311.999H498.882V273.665C498.882 225.707 462.888 185.999 416.495 180.133L398.542 49.2902C394.667 21.0465 370.535 0 342.027 0H156.854C128.346 0 104.215 21.0465 100.339 49.2902L82.3856 180.133C35.9934 185.999 0 225.707 0 273.665V608.058C0 656.016 35.994 695.725 82.3856 701.59L100.339 832.432C104.215 860.676 128.346 881.722 156.854 881.722H342.027C370.536 881.722 394.667 860.676 398.542 832.432L416.496 701.59C462.888 695.724 498.882 656.016 498.882 608.058V603.53C501.729 600.704 503.492 596.789 503.492 592.461V483.193C503.492 478.865 501.728 474.95 498.882 472.125V418.863H506.758C516.289 418.863 524.014 411.137 524.014 401.607V329.255C524.014 319.725 516.288 311.999 506.758 311.999ZM460.112 608.058C460.112 638.667 435.21 663.569 404.602 663.569H94.2794C63.6706 663.569 38.7687 638.667 38.7687 608.058V273.665C38.7687 243.056 63.6706 218.155 94.2794 218.155H404.602C435.21 218.155 460.112 243.057 460.112 273.665V608.058Z" fill="#FE5801"/>
<path d="M309.111 486.904C306.599 486.904 304.049 486.352 301.636 485.187L241.954 456.367C236.003 453.493 232.223 447.469 232.223 440.862V324.175C232.223 314.665 239.932 306.957 249.441 306.957C258.95 306.957 266.659 314.665 266.659 324.175V430.055L316.61 454.176C325.174 458.311 328.763 468.606 324.628 477.168C321.659 483.318 315.511 486.904 309.111 486.904Z" fill="#FE5801"/>
</svg>
