<svg width="771" height="825" viewBox="0 0 771 825" fill="none" xmlns="http://www.w3.org/2000/svg">
<path d="M668.916 166.988H621.736L650.447 265.364H685.829V183.912C685.829 174.58 678.238 166.988 668.916 166.988ZM464.992 103.989C456.731 108.87 447.116 110.759 437.489 109.322C428.575 107.989 420.511 103.935 414.22 97.7147L243.528 224.045L246.374 223.212L498.714 149.552L464.992 103.989ZM585.755 204.411C576.314 206.136 566.638 204.585 558.1 199.905C550.199 195.573 544.033 188.978 540.284 180.968L251.147 265.364H603.544L585.755 204.411ZM318.173 61.4887C310.032 70.0217 298.931 74.4727 287.732 74.4727C280.848 74.4727 273.926 72.7906 267.63 69.3466L120.855 259.852L127.499 257.909L154.044 238.264L354.785 89.6987L318.173 61.4887ZM600.513 140.901C599.408 137.114 595.425 134.931 591.638 136.036L284.799 225.602L148.586 265.365H204.538L542.411 166.744C544.076 166.26 545.861 166.456 547.379 167.288C548.897 168.12 550.024 169.519 550.508 171.184C552.674 178.601 557.599 184.734 564.379 188.451C571.159 192.168 578.979 193.022 586.402 190.856C586.973 190.687 587.518 190.513 588.04 190.328C589.738 189.724 591.604 189.844 593.204 190.66C594.809 191.476 596.001 192.918 596.507 194.649L617.148 265.365H636.842L600.513 140.901ZM456.878 39.2917C455.741 37.7517 454.076 36.7558 452.187 36.4728C451.828 36.4188 451.469 36.3907 451.115 36.3907C449.591 36.3907 448.117 36.8747 446.876 37.7947L163.741 247.33L207.275 234.623L411.297 83.6307C412.69 82.6027 414.431 82.1667 416.146 82.4227C417.86 82.6787 419.4 83.6037 420.434 84.9967C425.032 91.2107 431.775 95.2657 439.415 96.4027C447.066 97.5457 454.701 95.6407 460.915 91.0427C461.383 90.6947 461.829 90.3407 462.254 89.9867C463.636 88.8327 465.432 88.2947 467.217 88.5067C469.007 88.7187 470.629 89.6608 471.701 91.1078L512.073 145.651L531.413 140.008L456.878 39.2917ZM292.668 1.48276C289.544 -0.92224 285.039 -0.340337 282.633 2.78366L158.077 164.448L157.995 164.557C157.979 164.579 157.962 164.601 157.941 164.622L80.325 265.365H100.117L260.959 56.6028C263.163 53.7458 267.261 53.2127 270.118 55.4167C282.765 65.1577 300.973 62.7958 310.719 50.1548C311.127 49.6158 311.432 49.1918 311.693 48.8058C312.7 47.3038 314.283 46.2808 316.068 45.9928C317.848 45.6988 319.676 46.1617 321.107 47.2657L365.702 81.6247L381.505 69.9308L292.668 1.48276ZM49.193 166.988C22.071 166.988 0 189.054 0 216.176C0 218.641 0.18494 221.074 0.53894 223.468C2.06794 233.84 6.86204 243.407 14.415 250.954C14.916 251.455 15.433 251.944 15.955 252.423C16.096 252.548 16.233 252.679 16.374 252.804C16.853 253.234 17.343 253.658 17.838 254.066C18.029 254.229 18.224 254.382 18.42 254.539C18.708 254.773 19.002 254.996 19.296 255.225C19.65 255.497 20.009 255.769 20.368 256.03C20.569 256.177 20.7761 256.318 20.9771 256.46C21.3801 256.743 21.788 257.031 22.196 257.304C22.316 257.38 22.43 257.451 22.55 257.522C23.323 258.028 24.117 258.507 24.917 258.964C25.216 259.133 25.521 259.312 25.826 259.481C26.114 259.633 26.403 259.78 26.691 259.927C27.088 260.134 27.48 260.335 27.877 260.526C28.127 260.646 28.3831 260.76 28.6331 260.88C29.0901 261.092 29.553 261.299 30.021 261.495C30.228 261.582 30.435 261.669 30.647 261.756C31.197 261.979 31.752 262.191 32.307 262.398C32.443 262.447 32.579 262.496 32.715 262.545C34.897 263.323 37.139 263.938 39.425 264.401C39.534 264.423 39.648 264.439 39.762 264.461C40.388 264.581 41.014 264.69 41.645 264.788C41.835 264.815 42.0259 264.842 42.2159 264.87C42.7759 264.952 43.342 265.017 43.908 265.077C44.126 265.104 44.349 265.126 44.572 265.148C45.133 265.202 45.693 265.241 46.254 265.273C46.466 265.284 46.678 265.3 46.891 265.311C47.658 265.344 48.42 265.365 49.193 265.365H63.837L139.63 166.989L49.193 166.988ZM689.421 479.737H747.534V295.338C747.534 286.011 739.948 278.425 730.621 278.425H49.194C48.41 278.425 47.627 278.409 46.849 278.376C46.691 278.371 46.539 278.371 46.381 278.36C45.657 278.327 44.9389 278.284 44.2209 278.229C44.0139 278.213 43.807 278.191 43.601 278.175C42.943 278.115 42.289 278.05 41.637 277.974C41.392 277.947 41.153 277.909 40.908 277.881C40.391 277.81 39.874 277.734 39.363 277.652C39.08 277.609 38.797 277.565 38.519 277.516C37.926 277.418 37.333 277.304 36.74 277.184C36.413 277.119 36.092 277.048 35.766 276.977C35.298 276.879 34.835 276.77 34.373 276.656C33.954 276.553 33.535 276.449 33.121 276.335C32.729 276.232 32.337 276.123 31.951 276.014L30.939 275.72C30.395 275.551 29.851 275.377 29.306 275.192C29.034 275.099 28.756 275.007 28.484 274.909C27.875 274.697 27.265 274.474 26.661 274.24C26.481 274.169 26.3019 274.093 26.1219 274.022C25.4909 273.772 24.87 273.511 24.25 273.244C24.19 273.211 24.1249 273.19 24.0599 273.157C23.3199 272.831 22.5849 272.488 21.8619 272.134C21.8129 272.107 21.7689 272.085 21.7209 272.063C16.8069 269.641 12.1981 266.55 8.00806 262.839C7.95406 262.795 7.89897 262.746 7.84497 262.698C7.45897 262.355 7.07802 262.001 6.69702 261.648C6.62102 261.577 6.53902 261.507 6.46802 261.436C6.03302 261.028 5.60296 260.609 5.18396 260.19C5.16796 260.174 5.15101 260.157 5.14001 260.141C4.73201 259.738 4.32901 259.325 3.93701 258.906C3.80701 258.77 3.67604 258.629 3.54504 258.487C3.26704 258.182 2.99004 257.883 2.71204 257.573C2.57604 257.415 2.43497 257.257 2.29297 257.1C2.02097 256.79 1.74906 256.469 1.48206 256.153C1.36206 256.012 1.24803 255.876 1.13403 255.739C0.759033 255.287 0.394034 254.836 0.0350342 254.373C0.0240342 254.362 0.0129531 254.351 0.00195312 254.335V775.045C0.00195312 802.472 22.319 824.783 49.745 824.783H730.623C739.95 824.783 747.536 817.197 747.536 807.87V623.471H689.423C649.796 623.471 617.559 591.234 617.559 551.602C617.557 511.974 649.794 479.737 689.421 479.737Z" fill="#FE5801"/>
<path d="M755.299 492.797H689.421C656.999 492.797 630.617 519.179 630.617 551.601C630.617 584.028 656.999 610.41 689.421 610.41H755.299C763.657 610.41 770.46 603.608 770.46 595.249V507.958C770.46 499.599 763.658 492.797 755.299 492.797ZM690.357 571.893C679.171 571.893 670.071 562.793 670.071 551.607C670.071 540.414 679.171 531.314 690.357 531.314C701.55 531.314 710.65 540.414 710.65 551.607C710.65 562.792 701.549 571.893 690.357 571.893Z" fill="#FE5801"/>
</svg>
